<svg width="375" height="748" viewBox="0 0 375 748" fill="none" xmlns="http://www.w3.org/2000/svg">
<g clip-path="url(#clip0_2160_1234)">
<g filter="url(#filter0_f_2160_1234)">
<circle cx="-33.0601" cy="1059.44" r="499.44" fill="#F7B733"/>
</g>
<g filter="url(#filter1_f_2160_1234)">
<circle cx="408.06" cy="1070.93" r="499.44" fill="#FC4B1A"/>
</g>
<circle cx="187.5" cy="1560" r="1000" fill="#18181B"/>
<path fill-rule="evenodd" clip-rule="evenodd" d="M137.5 64C136.948 64 136.5 64.4477 136.5 65V115C136.5 115.552 136.948 116 137.5 116C138.052 116 138.5 115.552 138.5 115V65C138.5 64.4477 138.052 64 137.5 64ZM132.5 69C132.5 68.4477 132.948 68 133.5 68C134.052 68 134.5 68.4477 134.5 69V111C134.5 111.552 134.052 112 133.5 112C132.948 112 132.5 111.552 132.5 111V69ZM85.5 70C84.9477 70 84.5 70.4477 84.5 71V109C84.5 109.552 84.9477 110 85.5 110C86.0523 110 86.5 109.552 86.5 109V71C86.5 70.4477 86.0523 70 85.5 70ZM89.5 74C88.9477 74 88.5 74.4477 88.5 75V105C88.5 105.552 88.9477 106 89.5 106C90.0523 106 90.5 105.552 90.5 105V75C90.5 74.4477 90.0523 74 89.5 74ZM92.5 77C92.5 76.4477 92.9477 76 93.5 76C94.0523 76 94.5 76.4477 94.5 77V103C94.5 103.552 94.0523 104 93.5 104C92.9477 104 92.5 103.552 92.5 103V77ZM97.5 76C96.9477 76 96.5 76.4477 96.5 77V103C96.5 103.552 96.9477 104 97.5 104C98.0523 104 98.5 103.552 98.5 103V77C98.5 76.4477 98.0523 76 97.5 76ZM100.5 81C100.5 80.4477 100.948 80 101.5 80C102.052 80 102.5 80.4477 102.5 81V99C102.5 99.5523 102.052 100 101.5 100C100.948 100 100.5 99.5523 100.5 99V81ZM105.5 84C104.948 84 104.5 84.4477 104.5 85V95C104.5 95.5523 104.948 96 105.5 96C106.052 96 106.5 95.5523 106.5 95V85C106.5 84.4477 106.052 84 105.5 84ZM108.5 82C108.5 81.4477 108.948 81 109.5 81C110.052 81 110.5 81.4477 110.5 82V98C110.5 98.5523 110.052 99 109.5 99C108.948 99 108.5 98.5523 108.5 98V82ZM113.5 82C112.948 82 112.5 82.4477 112.5 83V97C112.5 97.5523 112.948 98 113.5 98C114.052 98 114.5 97.5523 114.5 97V83C114.5 82.4477 114.052 82 113.5 82ZM116.5 83C116.5 82.4477 116.948 82 117.5 82C118.052 82 118.5 82.4477 118.5 83V97C118.5 97.5523 118.052 98 117.5 98C116.948 98 116.5 97.5523 116.5 97V83ZM121.5 83C120.948 83 120.5 83.4477 120.5 84V96C120.5 96.5523 120.948 97 121.5 97C122.052 97 122.5 96.5523 122.5 96V84C122.5 83.4477 122.052 83 121.5 83ZM124.5 77C124.5 76.4477 124.948 76 125.5 76C126.052 76 126.5 76.4477 126.5 77V103C126.5 103.552 126.052 104 125.5 104C124.948 104 124.5 103.552 124.5 103V77ZM129.5 71C128.948 71 128.5 71.4477 128.5 72V108C128.5 108.552 128.948 109 129.5 109C130.052 109 130.5 108.552 130.5 108V72C130.5 71.4477 130.052 71 129.5 71ZM140.5 72C140.5 71.4477 140.948 71 141.5 71C142.052 71 142.5 71.4477 142.5 72V108C142.5 108.552 142.052 109 141.5 109C140.948 109 140.5 108.552 140.5 108V72ZM145.5 78C144.948 78 144.5 78.4477 144.5 79V101C144.5 101.552 144.948 102 145.5 102C146.052 102 146.5 101.552 146.5 101V79C146.5 78.4477 146.052 78 145.5 78ZM148.5 88C148.5 87.4477 148.948 87 149.5 87C150.052 87 150.5 87.4477 150.5 88V92C150.5 92.5523 150.052 93 149.5 93C148.948 93 148.5 92.5523 148.5 92V88ZM153.5 80C152.948 80 152.5 80.4477 152.5 81V99C152.5 99.5523 152.948 100 153.5 100C154.052 100 154.5 99.5523 154.5 99V81C154.5 80.4477 154.052 80 153.5 80ZM156.5 73C156.5 72.4477 156.948 72 157.5 72C158.052 72 158.5 72.4477 158.5 73V107C158.5 107.552 158.052 108 157.5 108C156.948 108 156.5 107.552 156.5 107V73ZM161.5 70C160.948 70 160.5 70.4477 160.5 71V109C160.5 109.552 160.948 110 161.5 110C162.052 110 162.5 109.552 162.5 109V71C162.5 70.4477 162.052 70 161.5 70ZM164.5 77C164.5 76.4477 164.948 76 165.5 76C166.052 76 166.5 76.4477 166.5 77V103C166.5 103.552 166.052 104 165.5 104C164.948 104 164.5 103.552 164.5 103V77ZM169.5 74C168.948 74 168.5 74.4477 168.5 75V105C168.5 105.552 168.948 106 169.5 106C170.052 106 170.5 105.552 170.5 105V75C170.5 74.4477 170.052 74 169.5 74ZM172.5 75C172.5 74.4477 172.948 74 173.5 74C174.052 74 174.5 74.4477 174.5 75V105C174.5 105.552 174.052 106 173.5 106C172.948 106 172.5 105.552 172.5 105V75ZM177.5 80C176.948 80 176.5 80.4477 176.5 81V99C176.5 99.5523 176.948 100 177.5 100C178.052 100 178.5 99.5523 178.5 99V81C178.5 80.4477 178.052 80 177.5 80ZM180.5 87C180.5 86.4477 180.948 86 181.5 86C182.052 86 182.5 86.4477 182.5 87V93C182.5 93.5523 182.052 94 181.5 94C180.948 94 180.5 93.5523 180.5 93V87ZM185.5 88C184.948 88 184.5 88.4477 184.5 89V91C184.5 91.5523 184.948 92 185.5 92C186.052 92 186.5 91.5523 186.5 91V89C186.5 88.4477 186.052 88 185.5 88ZM188.5 86C188.5 85.4477 188.948 85 189.5 85C190.052 85 190.5 85.4477 190.5 86V94C190.5 94.5523 190.052 95 189.5 95C188.948 95 188.5 94.5523 188.5 94V86ZM193.5 82C192.948 82 192.5 82.4477 192.5 83V97C192.5 97.5523 192.948 98 193.5 98C194.052 98 194.5 97.5523 194.5 97V83C194.5 82.4477 194.052 82 193.5 82ZM196.5 81C196.5 80.4477 196.948 80 197.5 80C198.052 80 198.5 80.4477 198.5 81V99C198.5 99.5523 198.052 100 197.5 100C196.948 100 196.5 99.5523 196.5 99V81ZM201.5 82C200.948 82 200.5 82.4477 200.5 83V97C200.5 97.5523 200.948 98 201.5 98C202.052 98 202.5 97.5523 202.5 97V83C202.5 82.4477 202.052 82 201.5 82ZM204.5 81C204.5 80.4477 204.948 80 205.5 80C206.052 80 206.5 80.4477 206.5 81V99C206.5 99.5523 206.052 100 205.5 100C204.948 100 204.5 99.5523 204.5 99V81ZM209.5 83C208.948 83 208.5 83.4477 208.5 84V96C208.5 96.5523 208.948 97 209.5 97C210.052 97 210.5 96.5523 210.5 96V84C210.5 83.4477 210.052 83 209.5 83ZM212.5 77C212.5 76.4477 212.948 76 213.5 76C214.052 76 214.5 76.4477 214.5 77V103C214.5 103.552 214.052 104 213.5 104C212.948 104 212.5 103.552 212.5 103V77ZM217.5 81C216.948 81 216.5 81.4477 216.5 82V98C216.5 98.5523 216.948 99 217.5 99C218.052 99 218.5 98.5523 218.5 98V82C218.5 81.4477 218.052 81 217.5 81ZM220.5 76C220.5 75.4477 220.948 75 221.5 75C222.052 75 222.5 75.4477 222.5 76V104C222.5 104.552 222.052 105 221.5 105C220.948 105 220.5 104.552 220.5 104V76ZM225.5 77C224.948 77 224.5 77.4477 224.5 78V102C224.5 102.552 224.948 103 225.5 103C226.052 103 226.5 102.552 226.5 102V78C226.5 77.4477 226.052 77 225.5 77ZM228.5 81C228.5 80.4477 228.948 80 229.5 80C230.052 80 230.5 80.4477 230.5 81V99C230.5 99.5523 230.052 100 229.5 100C228.948 100 228.5 99.5523 228.5 99V81ZM233.5 86C232.948 86 232.5 86.4477 232.5 87V93C232.5 93.5523 232.948 94 233.5 94C234.052 94 234.5 93.5523 234.5 93V87C234.5 86.4477 234.052 86 233.5 86ZM236.5 89C236.5 88.4477 236.948 88 237.5 88C238.052 88 238.5 88.4477 238.5 89V91C238.5 91.5523 238.052 92 237.5 92C236.948 92 236.5 91.5523 236.5 91V89ZM241.5 86C240.948 86 240.5 86.4477 240.5 87V93C240.5 93.5523 240.948 94 241.5 94C242.052 94 242.5 93.5523 242.5 93V87C242.5 86.4477 242.052 86 241.5 86ZM244.5 84C244.5 83.4477 244.948 83 245.5 83C246.052 83 246.5 83.4477 246.5 84V96C246.5 96.5523 246.052 97 245.5 97C244.948 97 244.5 96.5523 244.5 96V84ZM249.5 81C248.948 81 248.5 81.4477 248.5 82V98C248.5 98.5523 248.948 99 249.5 99C250.052 99 250.5 98.5523 250.5 98V82C250.5 81.4477 250.052 81 249.5 81ZM252.5 84C252.5 83.4477 252.948 83 253.5 83C254.052 83 254.5 83.4477 254.5 84V96C254.5 96.5523 254.052 97 253.5 97C252.948 97 252.5 96.5523 252.5 96V84ZM257.5 85C256.948 85 256.5 85.4477 256.5 86V94C256.5 94.5523 256.948 95 257.5 95C258.052 95 258.5 94.5523 258.5 94V86C258.5 85.4477 258.052 85 257.5 85ZM260.5 85C260.5 84.4477 260.948 84 261.5 84C262.052 84 262.5 84.4477 262.5 85V95C262.5 95.5523 262.052 96 261.5 96C260.948 96 260.5 95.5523 260.5 95V85ZM265.5 81C264.948 81 264.5 81.4477 264.5 82V98C264.5 98.5523 264.948 99 265.5 99C266.052 99 266.5 98.5523 266.5 98V82C266.5 81.4477 266.052 81 265.5 81ZM268.5 85C268.5 84.4477 268.948 84 269.5 84C270.052 84 270.5 84.4477 270.5 85V95C270.5 95.5523 270.052 96 269.5 96C268.948 96 268.5 95.5523 268.5 95V85ZM273.5 81C272.948 81 272.5 81.4477 272.5 82V98C272.5 98.5523 272.948 99 273.5 99C274.052 99 274.5 98.5523 274.5 98V82C274.5 81.4477 274.052 81 273.5 81ZM276.5 83C276.5 82.4477 276.948 82 277.5 82C278.052 82 278.5 82.4477 278.5 83V97C278.5 97.5523 278.052 98 277.5 98C276.948 98 276.5 97.5523 276.5 97V83ZM281.5 84C280.948 84 280.5 84.4477 280.5 85V95C280.5 95.5523 280.948 96 281.5 96C282.052 96 282.5 95.5523 282.5 95V85C282.5 84.4477 282.052 84 281.5 84ZM284.5 87C284.5 86.4477 284.948 86 285.5 86C286.052 86 286.5 86.4477 286.5 87V93C286.5 93.5523 286.052 94 285.5 94C284.948 94 284.5 93.5523 284.5 93V87ZM289.5 88C288.948 88 288.5 88.4477 288.5 89V91C288.5 91.5523 288.948 92 289.5 92C290.052 92 290.5 91.5523 290.5 91V89C290.5 88.4477 290.052 88 289.5 88Z" fill="url(#paint0_linear_2160_1234)"/>
<path d="M41.3981 160.545H47.0799L49.4947 163.628L52.6623 167.264L57.5344 173.273H51.1708L47.7617 169.196L45.7447 166.298L41.3981 160.545ZM57.7333 156.455C57.7333 159.655 57.1178 162.368 55.8867 164.594C54.6557 166.819 52.989 168.509 50.8867 169.665C48.7939 170.82 46.4454 171.398 43.8413 171.398C41.2276 171.398 38.8744 170.815 36.7816 169.651C34.6888 168.486 33.0269 166.795 31.7958 164.58C30.5742 162.354 29.9634 159.646 29.9634 156.455C29.9634 153.254 30.5742 150.541 31.7958 148.315C33.0269 146.09 34.6888 144.4 36.7816 143.244C38.8744 142.089 41.2276 141.511 43.8413 141.511C46.4454 141.511 48.7939 142.089 50.8867 143.244C52.989 144.4 54.6557 146.09 55.8867 148.315C57.1178 150.541 57.7333 153.254 57.7333 156.455ZM50.5458 156.455C50.5458 154.561 50.2759 152.96 49.7362 151.653C49.2058 150.347 48.4388 149.357 47.435 148.685C46.4407 148.012 45.2428 147.676 43.8413 147.676C42.4492 147.676 41.2513 148.012 40.2475 148.685C39.2437 149.357 38.4719 150.347 37.9322 151.653C37.4019 152.96 37.1367 154.561 37.1367 156.455C37.1367 158.348 37.4019 159.949 37.9322 161.256C38.4719 162.562 39.2437 163.552 40.2475 164.224C41.2513 164.897 42.4492 165.233 43.8413 165.233C45.2428 165.233 46.4407 164.897 47.435 164.224C48.4388 163.552 49.2058 162.562 49.7362 161.256C50.2759 159.949 50.5458 158.348 50.5458 156.455ZM74.3542 161.582V149.182H81.286V171H74.6667V166.938H74.4394C73.9565 168.273 73.1326 169.333 71.9678 170.119C70.8125 170.896 69.4157 171.284 67.7775 171.284C66.2907 171.284 64.9839 170.943 63.857 170.261C62.7301 169.58 61.8542 168.628 61.2292 167.406C60.6042 166.175 60.287 164.736 60.2775 163.088V149.182H67.2235V161.724C67.233 162.908 67.5455 163.841 68.161 164.523C68.7765 165.205 69.6146 165.545 70.6752 165.545C71.3665 165.545 71.9868 165.394 72.536 165.091C73.0947 164.778 73.5351 164.329 73.857 163.741C74.1885 163.145 74.3542 162.425 74.3542 161.582ZM94.306 171.412C92.0238 171.412 90.0541 170.962 88.3969 170.062C86.7492 169.153 85.4803 167.861 84.5901 166.185C83.7094 164.499 83.2691 162.496 83.2691 160.176C83.2691 157.922 83.7142 155.953 84.6043 154.267C85.4945 152.572 86.7492 151.256 88.3685 150.318C89.9879 149.371 91.896 148.898 94.093 148.898C95.646 148.898 97.0665 149.139 98.3543 149.622C99.6422 150.105 100.755 150.82 101.692 151.767C102.63 152.714 103.359 153.884 103.88 155.276C104.401 156.658 104.661 158.244 104.661 160.034V161.767H85.6981V157.733H98.1981C98.1886 156.994 98.0134 156.336 97.6725 155.759C97.3316 155.181 96.8629 154.731 96.2663 154.409C95.6791 154.078 95.0021 153.912 94.235 153.912C93.4585 153.912 92.7625 154.087 92.1469 154.438C91.5314 154.778 91.0437 155.247 90.6839 155.844C90.324 156.431 90.1346 157.098 90.1157 157.847V161.952C90.1157 162.842 90.2909 163.623 90.6413 164.295C90.9916 164.958 91.4888 165.474 92.1327 165.844C92.7767 166.213 93.5437 166.398 94.4339 166.398C95.0494 166.398 95.6081 166.312 96.11 166.142C96.6119 165.972 97.0428 165.721 97.4026 165.389C97.7625 165.058 98.0324 164.651 98.2123 164.168L104.59 164.352C104.325 165.782 103.743 167.027 102.843 168.088C101.953 169.139 100.783 169.958 99.3344 170.545C97.8856 171.123 96.2094 171.412 94.306 171.412ZM106.609 171V149.182H113.214V153.188H113.455C113.91 151.862 114.677 150.815 115.756 150.048C116.836 149.281 118.124 148.898 119.62 148.898C121.135 148.898 122.433 149.286 123.512 150.062C124.592 150.839 125.278 151.881 125.572 153.188H125.799C126.206 151.89 127.002 150.853 128.185 150.077C129.369 149.291 130.766 148.898 132.376 148.898C134.44 148.898 136.116 149.561 137.404 150.886C138.692 152.203 139.336 154.011 139.336 156.312V171H132.39V157.903C132.39 156.814 132.111 155.986 131.552 155.418C130.993 154.84 130.269 154.551 129.379 154.551C128.422 154.551 127.669 154.864 127.12 155.489C126.58 156.104 126.31 156.933 126.31 157.974V171H119.634V157.832C119.634 156.819 119.36 156.019 118.81 155.432C118.261 154.845 117.537 154.551 116.637 154.551C116.031 154.551 115.496 154.698 115.032 154.991C114.568 155.276 114.203 155.683 113.938 156.213C113.683 156.743 113.555 157.368 113.555 158.088V171H106.609ZM159.218 171.412C156.917 171.412 154.943 170.938 153.295 169.991C151.657 169.045 150.397 167.728 149.517 166.043C148.636 164.348 148.196 162.387 148.196 160.162C148.196 157.927 148.636 155.967 149.517 154.281C150.407 152.586 151.671 151.265 153.309 150.318C154.957 149.371 156.922 148.898 159.204 148.898C161.221 148.898 162.978 149.262 164.474 149.991C165.98 150.721 167.154 151.753 167.997 153.088C168.849 154.414 169.299 155.972 169.346 157.761H162.855C162.722 156.644 162.343 155.768 161.718 155.134C161.103 154.499 160.298 154.182 159.304 154.182C158.499 154.182 157.793 154.409 157.187 154.864C156.581 155.309 156.108 155.972 155.767 156.852C155.435 157.723 155.27 158.803 155.27 160.091C155.27 161.379 155.435 162.468 155.767 163.358C156.108 164.239 156.581 164.906 157.187 165.361C157.793 165.806 158.499 166.028 159.304 166.028C159.948 166.028 160.516 165.891 161.008 165.616C161.51 165.342 161.922 164.939 162.244 164.409C162.566 163.869 162.77 163.216 162.855 162.449H169.346C169.28 164.248 168.83 165.82 167.997 167.165C167.173 168.509 166.013 169.556 164.517 170.304C163.03 171.043 161.264 171.412 159.218 171.412ZM177.451 171.369C176.059 171.369 174.824 171.137 173.744 170.673C172.674 170.2 171.826 169.49 171.201 168.543C170.586 167.586 170.278 166.388 170.278 164.949C170.278 163.737 170.491 162.714 170.917 161.881C171.344 161.047 171.931 160.37 172.679 159.849C173.427 159.329 174.289 158.936 175.264 158.67C176.239 158.396 177.281 158.211 178.389 158.116C179.63 158.003 180.629 157.884 181.386 157.761C182.144 157.629 182.693 157.444 183.034 157.207C183.384 156.961 183.559 156.616 183.559 156.17V156.099C183.559 155.37 183.308 154.807 182.807 154.409C182.305 154.011 181.628 153.812 180.775 153.812C179.857 153.812 179.118 154.011 178.559 154.409C178.001 154.807 177.646 155.356 177.494 156.057L171.088 155.83C171.277 154.504 171.765 153.32 172.551 152.278C173.346 151.227 174.435 150.403 175.818 149.807C177.21 149.201 178.881 148.898 180.832 148.898C182.224 148.898 183.507 149.063 184.682 149.395C185.856 149.717 186.879 150.19 187.75 150.815C188.621 151.431 189.293 152.188 189.767 153.088C190.25 153.988 190.491 155.015 190.491 156.17V171H183.957V167.96H183.787C183.398 168.699 182.901 169.324 182.295 169.835C181.699 170.347 180.993 170.73 180.179 170.986C179.374 171.241 178.465 171.369 177.451 171.369ZM179.596 166.824C180.344 166.824 181.017 166.672 181.613 166.369C182.219 166.066 182.702 165.65 183.062 165.119C183.422 164.58 183.602 163.955 183.602 163.244V161.17C183.403 161.275 183.162 161.369 182.878 161.455C182.603 161.54 182.3 161.62 181.969 161.696C181.637 161.772 181.296 161.838 180.946 161.895C180.595 161.952 180.259 162.004 179.937 162.051C179.284 162.155 178.725 162.316 178.261 162.534C177.807 162.752 177.456 163.036 177.21 163.386C176.973 163.727 176.855 164.134 176.855 164.608C176.855 165.328 177.111 165.877 177.622 166.256C178.143 166.634 178.801 166.824 179.596 166.824ZM200.084 158.557V171H193.138V149.182H199.744V153.188H199.985C200.468 151.852 201.292 150.806 202.457 150.048C203.621 149.281 205.009 148.898 206.619 148.898C208.153 148.898 209.483 149.243 210.61 149.935C211.746 150.616 212.627 151.573 213.252 152.804C213.887 154.026 214.199 155.455 214.19 157.094V171H207.244V158.457C207.253 157.245 206.945 156.298 206.32 155.616C205.705 154.935 204.848 154.594 203.749 154.594C203.02 154.594 202.376 154.755 201.817 155.077C201.268 155.389 200.842 155.839 200.539 156.426C200.245 157.013 200.094 157.723 200.084 158.557ZM229.205 149.182V154.295H215.441V149.182H229.205ZM218.325 143.955H225.271V164.139C225.271 164.565 225.337 164.911 225.47 165.176C225.612 165.432 225.815 165.616 226.08 165.73C226.345 165.834 226.663 165.886 227.032 165.886C227.297 165.886 227.577 165.863 227.87 165.815C228.173 165.759 228.4 165.711 228.552 165.673L229.603 170.688C229.272 170.782 228.803 170.901 228.197 171.043C227.6 171.185 226.885 171.275 226.052 171.312C224.423 171.388 223.026 171.199 221.862 170.744C220.706 170.28 219.821 169.561 219.205 168.585C218.599 167.61 218.306 166.384 218.325 164.906V143.955ZM237.3 171.369C235.908 171.369 234.672 171.137 233.593 170.673C232.522 170.2 231.675 169.49 231.05 168.543C230.434 167.586 230.127 166.388 230.127 164.949C230.127 163.737 230.34 162.714 230.766 161.881C231.192 161.047 231.779 160.37 232.527 159.849C233.275 159.329 234.137 158.936 235.112 158.67C236.088 158.396 237.129 158.211 238.237 158.116C239.478 158.003 240.477 157.884 241.235 157.761C241.992 157.629 242.541 157.444 242.882 157.207C243.233 156.961 243.408 156.616 243.408 156.17V156.099C243.408 155.37 243.157 154.807 242.655 154.409C242.153 154.011 241.476 153.812 240.624 153.812C239.705 153.812 238.967 154.011 238.408 154.409C237.849 154.807 237.494 155.356 237.343 156.057L230.936 155.83C231.126 154.504 231.613 153.32 232.399 152.278C233.195 151.227 234.284 150.403 235.666 149.807C237.058 149.201 238.73 148.898 240.681 148.898C242.073 148.898 243.356 149.063 244.53 149.395C245.704 149.717 246.727 150.19 247.598 150.815C248.469 151.431 249.142 152.188 249.615 153.088C250.098 153.988 250.34 155.015 250.34 156.17V171H243.806V167.96H243.635C243.247 168.699 242.75 169.324 242.144 169.835C241.547 170.347 240.842 170.73 240.027 170.986C239.222 171.241 238.313 171.369 237.3 171.369ZM239.445 166.824C240.193 166.824 240.865 166.672 241.462 166.369C242.068 166.066 242.551 165.65 242.911 165.119C243.271 164.58 243.451 163.955 243.451 163.244V161.17C243.252 161.275 243.01 161.369 242.726 161.455C242.451 161.54 242.148 161.62 241.817 161.696C241.486 161.772 241.145 161.838 240.794 161.895C240.444 161.952 240.108 162.004 239.786 162.051C239.132 162.155 238.574 162.316 238.11 162.534C237.655 162.752 237.305 163.036 237.058 163.386C236.822 163.727 236.703 164.134 236.703 164.608C236.703 165.328 236.959 165.877 237.47 166.256C237.991 166.634 238.649 166.824 239.445 166.824ZM279.029 155.844L272.651 156.014C272.585 155.56 272.405 155.157 272.111 154.807C271.818 154.447 271.434 154.168 270.961 153.969C270.497 153.76 269.957 153.656 269.341 153.656C268.536 153.656 267.85 153.817 267.282 154.139C266.723 154.461 266.448 154.897 266.458 155.446C266.448 155.872 266.619 156.241 266.969 156.554C267.329 156.866 267.968 157.117 268.887 157.307L273.091 158.102C275.269 158.519 276.889 159.21 277.949 160.176C279.019 161.142 279.559 162.42 279.569 164.011C279.559 165.508 279.114 166.81 278.233 167.918C277.362 169.026 276.169 169.887 274.654 170.503C273.139 171.109 271.406 171.412 269.455 171.412C266.34 171.412 263.882 170.773 262.083 169.494C260.293 168.206 259.27 166.483 259.015 164.324L265.875 164.153C266.027 164.949 266.42 165.555 267.054 165.972C267.689 166.388 268.499 166.597 269.483 166.597C270.374 166.597 271.098 166.431 271.657 166.099C272.215 165.768 272.5 165.328 272.509 164.778C272.5 164.286 272.282 163.893 271.856 163.599C271.429 163.296 270.762 163.06 269.853 162.889L266.046 162.165C263.858 161.767 262.23 161.033 261.16 159.963C260.09 158.884 259.559 157.51 259.569 155.844C259.559 154.385 259.947 153.14 260.733 152.108C261.519 151.066 262.637 150.271 264.086 149.722C265.535 149.172 267.244 148.898 269.214 148.898C272.168 148.898 274.498 149.518 276.202 150.759C277.907 151.99 278.849 153.685 279.029 155.844ZM291.587 171.412C289.305 171.412 287.335 170.962 285.678 170.062C284.03 169.153 282.762 167.861 281.871 166.185C280.991 164.499 280.55 162.496 280.55 160.176C280.55 157.922 280.995 155.953 281.886 154.267C282.776 152.572 284.03 151.256 285.65 150.318C287.269 149.371 289.177 148.898 291.374 148.898C292.927 148.898 294.348 149.139 295.636 149.622C296.923 150.105 298.036 150.82 298.974 151.767C299.911 152.714 300.64 153.884 301.161 155.276C301.682 156.658 301.942 158.244 301.942 160.034V161.767H282.979V157.733H295.479C295.47 156.994 295.295 156.336 294.954 155.759C294.613 155.181 294.144 154.731 293.548 154.409C292.96 154.078 292.283 153.912 291.516 153.912C290.74 153.912 290.044 154.087 289.428 154.438C288.813 154.778 288.325 155.247 287.965 155.844C287.605 156.431 287.416 157.098 287.397 157.847V161.952C287.397 162.842 287.572 163.623 287.923 164.295C288.273 164.958 288.77 165.474 289.414 165.844C290.058 166.213 290.825 166.398 291.715 166.398C292.331 166.398 292.889 166.312 293.391 166.142C293.893 165.972 294.324 165.721 294.684 165.389C295.044 165.058 295.314 164.651 295.494 164.168L301.871 164.352C301.606 165.782 301.024 167.027 300.124 168.088C299.234 169.139 298.065 169.958 296.616 170.545C295.167 171.123 293.491 171.412 291.587 171.412ZM317.967 161.582V149.182H324.899V171H318.279V166.938H318.052C317.569 168.273 316.745 169.333 315.58 170.119C314.425 170.896 313.028 171.284 311.39 171.284C309.903 171.284 308.596 170.943 307.47 170.261C306.343 169.58 305.467 168.628 304.842 167.406C304.217 166.175 303.899 164.736 303.89 163.088V149.182H310.836V161.724C310.845 162.908 311.158 163.841 311.774 164.523C312.389 165.205 313.227 165.545 314.288 165.545C314.979 165.545 315.599 165.394 316.149 165.091C316.707 164.778 317.148 164.329 317.47 163.741C317.801 163.145 317.967 162.425 317.967 161.582ZM346.768 155.844L340.39 156.014C340.324 155.56 340.144 155.157 339.85 154.807C339.557 154.447 339.173 154.168 338.7 153.969C338.236 153.76 337.696 153.656 337.08 153.656C336.276 153.656 335.589 153.817 335.021 154.139C334.462 154.461 334.187 154.897 334.197 155.446C334.187 155.872 334.358 156.241 334.708 156.554C335.068 156.866 335.707 157.117 336.626 157.307L340.83 158.102C343.009 158.519 344.628 159.21 345.688 160.176C346.759 161.142 347.298 162.42 347.308 164.011C347.298 165.508 346.853 166.81 345.973 167.918C345.101 169.026 343.908 169.887 342.393 170.503C340.878 171.109 339.145 171.412 337.194 171.412C334.079 171.412 331.621 170.773 329.822 169.494C328.032 168.206 327.009 166.483 326.754 164.324L333.615 164.153C333.766 164.949 334.159 165.555 334.794 165.972C335.428 166.388 336.238 166.597 337.223 166.597C338.113 166.597 338.837 166.431 339.396 166.099C339.955 165.768 340.239 165.328 340.248 164.778C340.239 164.286 340.021 163.893 339.595 163.599C339.169 163.296 338.501 163.06 337.592 162.889L333.785 162.165C331.598 161.767 329.969 161.033 328.899 159.963C327.829 158.884 327.298 157.51 327.308 155.844C327.298 154.385 327.687 153.14 328.473 152.108C329.259 151.066 330.376 150.271 331.825 149.722C333.274 149.172 334.983 148.898 336.953 148.898C339.907 148.898 342.237 149.518 343.941 150.759C345.646 151.99 346.588 153.685 346.768 155.844ZM55.1416 219V197.182H61.7467V201.188H61.9881C62.4427 199.862 63.2097 198.815 64.2893 198.048C65.3688 197.281 66.6567 196.898 68.1529 196.898C69.6681 196.898 70.9654 197.286 72.045 198.062C73.1245 198.839 73.8111 199.881 74.1046 201.188H74.3319C74.7391 199.89 75.5345 198.853 76.7183 198.077C77.902 197.291 79.2988 196.898 80.9086 196.898C82.973 196.898 84.6491 197.561 85.937 198.886C87.2249 200.203 87.8688 202.011 87.8688 204.312V219H80.9228V205.903C80.9228 204.814 80.6434 203.986 80.0847 203.418C79.526 202.84 78.8016 202.551 77.9114 202.551C76.955 202.551 76.2022 202.864 75.6529 203.489C75.1131 204.104 74.8433 204.933 74.8433 205.974V219H68.1671V205.832C68.1671 204.819 67.8925 204.019 67.3433 203.432C66.794 202.845 66.0696 202.551 65.17 202.551C64.5639 202.551 64.0289 202.698 63.5648 202.991C63.1008 203.276 62.7363 203.683 62.4711 204.213C62.2154 204.743 62.0876 205.368 62.0876 206.088V219H55.1416ZM96.7234 219.369C95.3313 219.369 94.0955 219.137 93.016 218.673C91.9459 218.2 91.0984 217.49 90.4734 216.543C89.8578 215.586 89.5501 214.388 89.5501 212.949C89.5501 211.737 89.7631 210.714 90.1893 209.881C90.6154 209.047 91.2025 208.37 91.9506 207.849C92.6988 207.329 93.5605 206.936 94.5359 206.67C95.5113 206.396 96.5529 206.211 97.6609 206.116C98.9014 206.003 99.9005 205.884 100.658 205.761C101.416 205.629 101.965 205.444 102.306 205.207C102.656 204.961 102.831 204.616 102.831 204.17V204.099C102.831 203.37 102.58 202.807 102.078 202.409C101.577 202.011 100.9 201.812 100.047 201.812C99.1287 201.812 98.39 202.011 97.8313 202.409C97.2726 202.807 96.9175 203.356 96.766 204.057L90.3597 203.83C90.5491 202.504 91.0368 201.32 91.8228 200.278C92.6183 199.227 93.7073 198.403 95.0899 197.807C96.4819 197.201 98.1533 196.898 100.104 196.898C101.496 196.898 102.779 197.063 103.953 197.395C105.128 197.717 106.15 198.19 107.022 198.815C107.893 199.431 108.565 200.188 109.039 201.088C109.522 201.988 109.763 203.015 109.763 204.17V219H103.229V215.96H103.059C102.67 216.699 102.173 217.324 101.567 217.835C100.971 218.347 100.265 218.73 99.4506 218.986C98.6457 219.241 97.7366 219.369 96.7234 219.369ZM98.8683 214.824C99.6164 214.824 100.289 214.672 100.885 214.369C101.491 214.066 101.974 213.65 102.334 213.119C102.694 212.58 102.874 211.955 102.874 211.244V209.17C102.675 209.275 102.434 209.369 102.15 209.455C101.875 209.54 101.572 209.62 101.24 209.696C100.909 209.772 100.568 209.838 100.218 209.895C99.8673 209.952 99.5311 210.004 99.2092 210.051C98.5558 210.155 97.997 210.316 97.533 210.534C97.0785 210.752 96.7281 211.036 96.4819 211.386C96.2452 211.727 96.1268 212.134 96.1268 212.608C96.1268 213.328 96.3825 213.877 96.8938 214.256C97.4147 214.634 98.0728 214.824 98.8683 214.824ZM119.356 189.909V219H112.41V189.909H119.356ZM132.376 219.412C130.094 219.412 128.124 218.962 126.467 218.062C124.82 217.153 123.551 215.861 122.66 214.185C121.78 212.499 121.339 210.496 121.339 208.176C121.339 205.922 121.784 203.953 122.675 202.267C123.565 200.572 124.82 199.256 126.439 198.318C128.058 197.371 129.966 196.898 132.163 196.898C133.716 196.898 135.137 197.139 136.425 197.622C137.713 198.105 138.825 198.82 139.763 199.767C140.7 200.714 141.429 201.884 141.95 203.276C142.471 204.658 142.731 206.244 142.731 208.034V209.767H123.768V205.733H136.268C136.259 204.994 136.084 204.336 135.743 203.759C135.402 203.181 134.933 202.731 134.337 202.409C133.749 202.078 133.072 201.912 132.305 201.912C131.529 201.912 130.833 202.087 130.217 202.438C129.602 202.778 129.114 203.247 128.754 203.844C128.394 204.431 128.205 205.098 128.186 205.847V209.952C128.186 210.842 128.361 211.623 128.712 212.295C129.062 212.958 129.559 213.474 130.203 213.844C130.847 214.213 131.614 214.398 132.504 214.398C133.12 214.398 133.678 214.312 134.18 214.142C134.682 213.972 135.113 213.721 135.473 213.389C135.833 213.058 136.103 212.651 136.283 212.168L142.66 212.352C142.395 213.782 141.813 215.027 140.913 216.088C140.023 217.139 138.854 217.958 137.405 218.545C135.956 219.123 134.28 219.412 132.376 219.412ZM163.727 203.844L157.35 204.014C157.283 203.56 157.103 203.157 156.81 202.807C156.516 202.447 156.133 202.168 155.659 201.969C155.195 201.76 154.655 201.656 154.04 201.656C153.235 201.656 152.548 201.817 151.98 202.139C151.421 202.461 151.147 202.897 151.156 203.446C151.147 203.872 151.317 204.241 151.668 204.554C152.028 204.866 152.667 205.117 153.585 205.307L157.79 206.102C159.968 206.519 161.587 207.21 162.648 208.176C163.718 209.142 164.258 210.42 164.267 212.011C164.258 213.508 163.813 214.81 162.932 215.918C162.061 217.026 160.867 217.887 159.352 218.503C157.837 219.109 156.104 219.412 154.153 219.412C151.038 219.412 148.581 218.773 146.781 217.494C144.992 216.206 143.969 214.483 143.713 212.324L150.574 212.153C150.725 212.949 151.118 213.555 151.753 213.972C152.387 214.388 153.197 214.597 154.182 214.597C155.072 214.597 155.796 214.431 156.355 214.099C156.914 213.768 157.198 213.328 157.207 212.778C157.198 212.286 156.98 211.893 156.554 211.599C156.128 211.296 155.46 211.06 154.551 210.889L150.744 210.165C148.557 209.767 146.928 209.033 145.858 207.963C144.788 206.884 144.258 205.51 144.267 203.844C144.258 202.385 144.646 201.14 145.432 200.108C146.218 199.066 147.335 198.271 148.784 197.722C150.233 197.172 151.942 196.898 153.912 196.898C156.867 196.898 159.196 197.518 160.901 198.759C162.605 199.99 163.547 201.685 163.727 203.844ZM183.279 219.412C180.997 219.412 179.028 218.962 177.37 218.062C175.723 217.153 174.454 215.861 173.564 214.185C172.683 212.499 172.243 210.496 172.243 208.176C172.243 205.922 172.688 203.953 173.578 202.267C174.468 200.572 175.723 199.256 177.342 198.318C178.961 197.371 180.869 196.898 183.066 196.898C184.619 196.898 186.04 197.139 187.328 197.622C188.616 198.105 189.728 198.82 190.666 199.767C191.603 200.714 192.333 201.884 192.853 203.276C193.374 204.658 193.635 206.244 193.635 208.034V209.767H174.672V205.733H187.172C187.162 204.994 186.987 204.336 186.646 203.759C186.305 203.181 185.836 202.731 185.24 202.409C184.653 202.078 183.975 201.912 183.208 201.912C182.432 201.912 181.736 202.087 181.12 202.438C180.505 202.778 180.017 203.247 179.657 203.844C179.297 204.431 179.108 205.098 179.089 205.847V209.952C179.089 210.842 179.264 211.623 179.615 212.295C179.965 212.958 180.462 213.474 181.106 213.844C181.75 214.213 182.517 214.398 183.407 214.398C184.023 214.398 184.582 214.312 185.083 214.142C185.585 213.972 186.016 213.721 186.376 213.389C186.736 213.058 187.006 212.651 187.186 212.168L193.564 212.352C193.298 213.782 192.716 215.027 191.816 216.088C190.926 217.139 189.757 217.958 188.308 218.545C186.859 219.123 185.183 219.412 183.279 219.412ZM214.63 203.844L208.253 204.014C208.186 203.56 208.006 203.157 207.713 202.807C207.419 202.447 207.036 202.168 206.562 201.969C206.098 201.76 205.559 201.656 204.943 201.656C204.138 201.656 203.452 201.817 202.883 202.139C202.325 202.461 202.05 202.897 202.059 203.446C202.05 203.872 202.22 204.241 202.571 204.554C202.931 204.866 203.57 205.117 204.488 205.307L208.693 206.102C210.871 206.519 212.49 207.21 213.551 208.176C214.621 209.142 215.161 210.42 215.17 212.011C215.161 213.508 214.716 214.81 213.835 215.918C212.964 217.026 211.771 217.887 210.255 218.503C208.74 219.109 207.007 219.412 205.057 219.412C201.941 219.412 199.484 218.773 197.684 217.494C195.895 216.206 194.872 214.483 194.616 212.324L201.477 212.153C201.629 212.949 202.022 213.555 202.656 213.972C203.291 214.388 204.1 214.597 205.085 214.597C205.975 214.597 206.7 214.431 207.258 214.099C207.817 213.768 208.101 213.328 208.111 212.778C208.101 212.286 207.883 211.893 207.457 211.599C207.031 211.296 206.363 211.06 205.454 210.889L201.648 210.165C199.46 209.767 197.831 209.033 196.761 207.963C195.691 206.884 195.161 205.51 195.17 203.844C195.161 202.385 195.549 201.14 196.335 200.108C197.121 199.066 198.238 198.271 199.687 197.722C201.136 197.172 202.845 196.898 204.815 196.898C207.77 196.898 210.099 197.518 211.804 198.759C213.508 199.99 214.451 201.685 214.63 203.844ZM216.99 227.182V197.182H223.865V200.918H224.078C224.362 200.255 224.765 199.616 225.285 199C225.816 198.384 226.488 197.883 227.302 197.494C228.126 197.097 229.111 196.898 230.257 196.898C231.772 196.898 233.188 197.295 234.504 198.091C235.83 198.886 236.9 200.113 237.714 201.77C238.529 203.427 238.936 205.539 238.936 208.105C238.936 210.577 238.543 212.646 237.757 214.312C236.981 215.979 235.929 217.229 234.604 218.062C233.287 218.896 231.824 219.312 230.214 219.312C229.116 219.312 228.164 219.133 227.359 218.773C226.554 218.413 225.877 217.939 225.328 217.352C224.788 216.765 224.372 216.135 224.078 215.463H223.936V227.182H216.99ZM223.794 208.091C223.794 209.265 223.95 210.288 224.263 211.159C224.585 212.03 225.044 212.707 225.641 213.19C226.247 213.664 226.971 213.901 227.814 213.901C228.666 213.901 229.391 213.664 229.987 213.19C230.584 212.707 231.034 212.03 231.337 211.159C231.649 210.288 231.805 209.265 231.805 208.091C231.805 206.917 231.649 205.899 231.337 205.037C231.034 204.175 230.584 203.508 229.987 203.034C229.4 202.561 228.676 202.324 227.814 202.324C226.962 202.324 226.237 202.556 225.641 203.02C225.044 203.484 224.585 204.147 224.263 205.009C223.95 205.87 223.794 206.898 223.794 208.091ZM247.127 219.369C245.734 219.369 244.499 219.137 243.419 218.673C242.349 218.2 241.502 217.49 240.877 216.543C240.261 215.586 239.953 214.388 239.953 212.949C239.953 211.737 240.166 210.714 240.592 209.881C241.019 209.047 241.606 208.37 242.354 207.849C243.102 207.329 243.964 206.936 244.939 206.67C245.914 206.396 246.956 206.211 248.064 206.116C249.305 206.003 250.304 205.884 251.061 205.761C251.819 205.629 252.368 205.444 252.709 205.207C253.059 204.961 253.234 204.616 253.234 204.17V204.099C253.234 203.37 252.984 202.807 252.482 202.409C251.98 202.011 251.303 201.812 250.45 201.812C249.532 201.812 248.793 202.011 248.234 202.409C247.676 202.807 247.321 203.356 247.169 204.057L240.763 203.83C240.952 202.504 241.44 201.32 242.226 200.278C243.021 199.227 244.11 198.403 245.493 197.807C246.885 197.201 248.556 196.898 250.507 196.898C251.899 196.898 253.182 197.063 254.357 197.395C255.531 197.717 256.554 198.19 257.425 198.815C258.296 199.431 258.968 200.188 259.442 201.088C259.925 201.988 260.166 203.015 260.166 204.17V219H253.632V215.96H253.462C253.073 216.699 252.576 217.324 251.97 217.835C251.374 218.347 250.668 218.73 249.854 218.986C249.049 219.241 248.14 219.369 247.127 219.369ZM249.271 214.824C250.019 214.824 250.692 214.672 251.288 214.369C251.894 214.066 252.377 213.65 252.737 213.119C253.097 212.58 253.277 211.955 253.277 211.244V209.17C253.078 209.275 252.837 209.369 252.553 209.455C252.278 209.54 251.975 209.62 251.644 209.696C251.312 209.772 250.971 209.838 250.621 209.895C250.27 209.952 249.934 210.004 249.612 210.051C248.959 210.155 248.4 210.316 247.936 210.534C247.482 210.752 247.131 211.036 246.885 211.386C246.648 211.727 246.53 212.134 246.53 212.608C246.53 213.328 246.786 213.877 247.297 214.256C247.818 214.634 248.476 214.824 249.271 214.824ZM269.759 206.557V219H262.813V197.182H269.419V201.188H269.66C270.143 199.852 270.967 198.806 272.132 198.048C273.296 197.281 274.684 196.898 276.294 196.898C277.828 196.898 279.158 197.243 280.285 197.935C281.421 198.616 282.302 199.573 282.927 200.804C283.562 202.026 283.874 203.455 283.865 205.094V219H276.919V206.457C276.928 205.245 276.62 204.298 275.995 203.616C275.38 202.935 274.523 202.594 273.424 202.594C272.695 202.594 272.051 202.755 271.492 203.077C270.943 203.389 270.517 203.839 270.214 204.426C269.92 205.013 269.769 205.723 269.759 206.557ZM298.88 197.182V202.295H285.116V197.182H298.88ZM288 191.955H294.946V212.139C294.946 212.565 295.012 212.911 295.145 213.176C295.287 213.432 295.49 213.616 295.755 213.73C296.02 213.834 296.338 213.886 296.707 213.886C296.972 213.886 297.252 213.863 297.545 213.815C297.848 213.759 298.075 213.711 298.227 213.673L299.278 218.688C298.947 218.782 298.478 218.901 297.872 219.043C297.275 219.185 296.56 219.275 295.727 219.312C294.098 219.388 292.701 219.199 291.537 218.744C290.381 218.28 289.496 217.561 288.88 216.585C288.274 215.61 287.981 214.384 288 212.906V191.955ZM306.975 219.369C305.583 219.369 304.347 219.137 303.268 218.673C302.197 218.2 301.35 217.49 300.725 216.543C300.109 215.586 299.802 214.388 299.802 212.949C299.802 211.737 300.015 210.714 300.441 209.881C300.867 209.047 301.454 208.37 302.202 207.849C302.95 207.329 303.812 206.936 304.787 206.67C305.763 206.396 306.804 206.211 307.912 206.116C309.153 206.003 310.152 205.884 310.91 205.761C311.667 205.629 312.216 205.444 312.557 205.207C312.908 204.961 313.083 204.616 313.083 204.17V204.099C313.083 203.37 312.832 202.807 312.33 202.409C311.828 202.011 311.151 201.812 310.299 201.812C309.38 201.812 308.642 202.011 308.083 202.409C307.524 202.807 307.169 203.356 307.018 204.057L300.611 203.83C300.801 202.504 301.288 201.32 302.074 200.278C302.87 199.227 303.959 198.403 305.341 197.807C306.733 197.201 308.405 196.898 310.356 196.898C311.748 196.898 313.031 197.063 314.205 197.395C315.379 197.717 316.402 198.19 317.273 198.815C318.144 199.431 318.817 200.188 319.29 201.088C319.773 201.988 320.015 203.015 320.015 204.17V219H313.481V215.96H313.31C312.922 216.699 312.425 217.324 311.819 217.835C311.222 218.347 310.517 218.73 309.702 218.986C308.897 219.241 307.988 219.369 306.975 219.369ZM309.12 214.824C309.868 214.824 310.54 214.672 311.137 214.369C311.743 214.066 312.226 213.65 312.586 213.119C312.946 212.58 313.126 211.955 313.126 211.244V209.17C312.927 209.275 312.685 209.369 312.401 209.455C312.126 209.54 311.823 209.62 311.492 209.696C311.161 209.772 310.82 209.838 310.469 209.895C310.119 209.952 309.783 210.004 309.461 210.051C308.807 210.155 308.249 210.316 307.785 210.534C307.33 210.752 306.98 211.036 306.733 211.386C306.497 211.727 306.378 212.134 306.378 212.608C306.378 213.328 306.634 213.877 307.145 214.256C307.666 214.634 308.324 214.824 309.12 214.824Z" fill="#F4F4F5"/>
<path d="M81.7454 247.185H79.5295C79.4442 246.711 79.2856 246.295 79.0536 245.935C78.8216 245.575 78.5375 245.269 78.2013 245.018C77.8652 244.768 77.4888 244.578 77.0721 244.45C76.6602 244.322 76.2222 244.259 75.7582 244.259C74.9201 244.259 74.1696 244.469 73.5067 244.891C72.8486 245.312 72.3278 245.93 71.9442 246.744C71.5655 247.559 71.3761 248.553 71.3761 249.727C71.3761 250.911 71.5655 251.91 71.9442 252.724C72.3278 253.539 72.851 254.154 73.5138 254.571C74.1767 254.988 74.9225 255.196 75.7511 255.196C76.2103 255.196 76.646 255.134 77.0579 255.011C77.4746 254.884 77.851 254.696 78.1871 254.45C78.5233 254.204 78.8074 253.903 79.0394 253.548C79.2762 253.188 79.4395 252.777 79.5295 252.312L81.7454 252.32C81.627 253.035 81.3974 253.693 81.0565 254.294C80.7203 254.891 80.2871 255.407 79.7567 255.842C79.2312 256.273 78.6299 256.607 77.9528 256.844C77.2757 257.08 76.5371 257.199 75.7369 257.199C74.4774 257.199 73.3552 256.901 72.3704 256.304C71.3855 255.703 70.609 254.843 70.0408 253.726C69.4774 252.608 69.1957 251.276 69.1957 249.727C69.1957 248.174 69.4798 246.841 70.0479 245.729C70.6161 244.611 71.3926 243.754 72.3775 243.158C73.3623 242.556 74.4821 242.256 75.7369 242.256C76.5086 242.256 77.2283 242.367 77.896 242.589C78.5683 242.807 79.172 243.129 79.707 243.555C80.2421 243.977 80.6848 244.493 81.0352 245.104C81.3855 245.71 81.6223 246.403 81.7454 247.185ZM87.3757 257.241C86.6844 257.241 86.0594 257.114 85.5007 256.858C84.942 256.598 84.4993 256.221 84.1726 255.729C83.8506 255.236 83.6896 254.633 83.6896 253.918C83.6896 253.302 83.808 252.795 84.0447 252.398C84.2815 252 84.6011 251.685 85.0036 251.453C85.406 251.221 85.8558 251.046 86.353 250.928C86.8501 250.809 87.3568 250.719 87.8729 250.658C88.5263 250.582 89.0566 250.52 89.4638 250.473C89.871 250.421 90.1669 250.338 90.3516 250.224C90.5362 250.111 90.6286 249.926 90.6286 249.67V249.621C90.6286 249 90.4534 248.52 90.103 248.179C89.7573 247.838 89.2412 247.668 88.5547 247.668C87.8397 247.668 87.2763 247.826 86.8643 248.143C86.4571 248.456 86.1754 248.804 86.0192 249.188L84.0234 248.733C84.2602 248.07 84.6058 247.535 85.0604 247.128C85.5196 246.716 86.0476 246.418 86.6442 246.233C87.2408 246.044 87.8681 245.949 88.5263 245.949C88.9619 245.949 89.4235 246.001 89.9112 246.105C90.4036 246.205 90.8629 246.389 91.2891 246.659C91.7199 246.929 92.0727 247.315 92.3473 247.817C92.6219 248.314 92.7592 248.96 92.7592 249.756V257H90.6854V255.509H90.6001C90.4628 255.783 90.2569 256.053 89.9822 256.318C89.7076 256.583 89.3549 256.804 88.924 256.979C88.4931 257.154 87.977 257.241 87.3757 257.241ZM87.8374 255.537C88.4245 255.537 88.9264 255.421 89.343 255.189C89.7644 254.957 90.084 254.654 90.3018 254.28C90.5244 253.901 90.6357 253.496 90.6357 253.065V251.659C90.5599 251.735 90.4131 251.806 90.1953 251.872C89.9822 251.934 89.7384 251.988 89.4638 252.036C89.1892 252.078 88.9216 252.118 88.6612 252.156C88.4008 252.189 88.183 252.218 88.0078 252.241C87.5959 252.294 87.2195 252.381 86.8786 252.504C86.5424 252.627 86.2725 252.805 86.0689 253.037C85.87 253.264 85.7706 253.567 85.7706 253.946C85.7706 254.472 85.9647 254.869 86.353 255.139C86.7412 255.404 87.236 255.537 87.8374 255.537ZM97.7113 250.523V257H95.5877V246.091H97.6261V247.866H97.761C98.012 247.289 98.4049 246.825 98.94 246.474C99.4798 246.124 100.159 245.949 100.978 245.949C101.722 245.949 102.373 246.105 102.931 246.418C103.49 246.725 103.923 247.185 104.231 247.795C104.539 248.406 104.693 249.161 104.693 250.061V257H102.569V250.317C102.569 249.526 102.363 248.908 101.951 248.463C101.539 248.013 100.974 247.788 100.254 247.788C99.7615 247.788 99.3235 247.895 98.94 248.108C98.5612 248.321 98.2605 248.634 98.038 249.045C97.8202 249.453 97.7113 249.945 97.7113 250.523ZM112.633 246.091V247.795H106.674V246.091H112.633ZM108.272 243.477H110.396V253.797C110.396 254.209 110.458 254.519 110.581 254.727C110.704 254.931 110.862 255.071 111.056 255.146C111.255 255.217 111.471 255.253 111.703 255.253C111.873 255.253 112.022 255.241 112.15 255.217C112.278 255.194 112.377 255.175 112.449 255.161L112.832 256.915C112.709 256.962 112.534 257.009 112.306 257.057C112.079 257.109 111.795 257.137 111.454 257.142C110.895 257.152 110.375 257.052 109.892 256.844C109.409 256.635 109.018 256.313 108.72 255.878C108.422 255.442 108.272 254.895 108.272 254.237V243.477ZM118.157 257.241C117.466 257.241 116.841 257.114 116.282 256.858C115.723 256.598 115.281 256.221 114.954 255.729C114.632 255.236 114.471 254.633 114.471 253.918C114.471 253.302 114.589 252.795 114.826 252.398C115.063 252 115.382 251.685 115.785 251.453C116.187 251.221 116.637 251.046 117.134 250.928C117.631 250.809 118.138 250.719 118.654 250.658C119.308 250.582 119.838 250.52 120.245 250.473C120.652 250.421 120.948 250.338 121.133 250.224C121.317 250.111 121.41 249.926 121.41 249.67V249.621C121.41 249 121.235 248.52 120.884 248.179C120.539 247.838 120.022 247.668 119.336 247.668C118.621 247.668 118.058 247.826 117.646 248.143C117.238 248.456 116.957 248.804 116.8 249.188L114.805 248.733C115.041 248.07 115.387 247.535 115.842 247.128C116.301 246.716 116.829 246.418 117.425 246.233C118.022 246.044 118.649 245.949 119.308 245.949C119.743 245.949 120.205 246.001 120.692 246.105C121.185 246.205 121.644 246.389 122.07 246.659C122.501 246.929 122.854 247.315 123.129 247.817C123.403 248.314 123.54 248.96 123.54 249.756V257H121.467V255.509H121.381C121.244 255.783 121.038 256.053 120.763 256.318C120.489 256.583 120.136 256.804 119.705 256.979C119.274 257.154 118.758 257.241 118.157 257.241ZM118.619 255.537C119.206 255.537 119.708 255.421 120.124 255.189C120.546 254.957 120.865 254.654 121.083 254.28C121.306 253.901 121.417 253.496 121.417 253.065V251.659C121.341 251.735 121.194 251.806 120.977 251.872C120.763 251.934 120.52 251.988 120.245 252.036C119.97 252.078 119.703 252.118 119.442 252.156C119.182 252.189 118.964 252.218 118.789 252.241C118.377 252.294 118.001 252.381 117.66 252.504C117.324 252.627 117.054 252.805 116.85 253.037C116.651 253.264 116.552 253.567 116.552 253.946C116.552 254.472 116.746 254.869 117.134 255.139C117.522 255.404 118.017 255.537 118.619 255.537ZM126.369 257V246.091H128.422V247.824H128.535C128.734 247.237 129.084 246.775 129.586 246.439C130.093 246.098 130.666 245.928 131.305 245.928C131.438 245.928 131.594 245.932 131.774 245.942C131.958 245.951 132.103 245.963 132.207 245.977V248.009C132.122 247.985 131.97 247.959 131.752 247.93C131.535 247.897 131.317 247.881 131.099 247.881C130.597 247.881 130.15 247.987 129.757 248.2C129.368 248.409 129.061 248.7 128.833 249.074C128.606 249.443 128.493 249.865 128.493 250.338V257H126.369ZM141.461 250.523V257H139.338V246.091H141.376V247.866H141.511C141.762 247.289 142.155 246.825 142.69 246.474C143.23 246.124 143.909 245.949 144.728 245.949C145.472 245.949 146.123 246.105 146.681 246.418C147.24 246.725 147.673 247.185 147.981 247.795C148.289 248.406 148.443 249.161 148.443 250.061V257H146.319V250.317C146.319 249.526 146.113 248.908 145.701 248.463C145.289 248.013 144.724 247.788 144.004 247.788C143.511 247.788 143.074 247.895 142.69 248.108C142.311 248.321 142.011 248.634 141.788 249.045C141.57 249.453 141.461 249.945 141.461 250.523ZM158.201 252.476V246.091H160.332V257H158.244V255.111H158.13C157.879 255.693 157.477 256.179 156.923 256.567C156.374 256.95 155.69 257.142 154.87 257.142C154.17 257.142 153.549 256.988 153.01 256.68C152.475 256.368 152.053 255.906 151.745 255.295C151.442 254.685 151.291 253.929 151.291 253.03V246.091H153.414V252.774C153.414 253.518 153.62 254.109 154.032 254.55C154.444 254.99 154.979 255.21 155.637 255.21C156.035 255.21 156.431 255.111 156.824 254.912C157.221 254.713 157.55 254.412 157.811 254.01C158.076 253.607 158.206 253.096 158.201 252.476ZM165.309 250.523V257H163.185V246.091H165.224V247.866H165.359C165.61 247.289 166.003 246.825 166.538 246.474C167.077 246.124 167.757 245.949 168.576 245.949C169.319 245.949 169.97 246.105 170.529 246.418C171.088 246.725 171.521 247.185 171.829 247.795C172.137 248.406 172.29 249.161 172.29 250.061V257H170.167V250.317C170.167 249.526 169.961 248.908 169.549 248.463C169.137 248.013 168.571 247.788 167.852 247.788C167.359 247.788 166.921 247.895 166.538 248.108C166.159 248.321 165.858 248.634 165.636 249.045C165.418 249.453 165.309 249.945 165.309 250.523ZM179.734 257.22C178.678 257.22 177.769 256.981 177.006 256.503C176.249 256.02 175.666 255.355 175.259 254.507C174.852 253.66 174.648 252.689 174.648 251.595C174.648 250.487 174.857 249.509 175.273 248.662C175.69 247.81 176.277 247.144 177.035 246.666C177.792 246.188 178.685 245.949 179.712 245.949C180.541 245.949 181.28 246.103 181.928 246.411C182.577 246.714 183.1 247.14 183.498 247.689C183.9 248.238 184.139 248.88 184.215 249.614H182.148C182.035 249.102 181.774 248.662 181.367 248.293C180.965 247.923 180.425 247.739 179.748 247.739C179.156 247.739 178.638 247.895 178.192 248.207C177.752 248.515 177.409 248.955 177.163 249.528C176.916 250.097 176.793 250.769 176.793 251.545C176.793 252.341 176.914 253.027 177.156 253.605C177.397 254.183 177.738 254.63 178.178 254.947C178.623 255.265 179.147 255.423 179.748 255.423C180.15 255.423 180.515 255.35 180.842 255.203C181.173 255.052 181.45 254.836 181.673 254.557C181.9 254.277 182.058 253.941 182.148 253.548H184.215C184.139 254.254 183.91 254.884 183.526 255.438C183.143 255.991 182.629 256.427 181.985 256.744C181.346 257.062 180.595 257.22 179.734 257.22ZM189.661 257.241C188.97 257.241 188.345 257.114 187.786 256.858C187.227 256.598 186.784 256.221 186.458 255.729C186.136 255.236 185.975 254.633 185.975 253.918C185.975 253.302 186.093 252.795 186.33 252.398C186.567 252 186.886 251.685 187.289 251.453C187.691 251.221 188.141 251.046 188.638 250.928C189.135 250.809 189.642 250.719 190.158 250.658C190.811 250.582 191.342 250.52 191.749 250.473C192.156 250.421 192.452 250.338 192.637 250.224C192.821 250.111 192.914 249.926 192.914 249.67V249.621C192.914 249 192.739 248.52 192.388 248.179C192.042 247.838 191.526 247.668 190.84 247.668C190.125 247.668 189.561 247.826 189.15 248.143C188.742 248.456 188.461 248.804 188.304 249.188L186.309 248.733C186.545 248.07 186.891 247.535 187.346 247.128C187.805 246.716 188.333 246.418 188.929 246.233C189.526 246.044 190.153 245.949 190.811 245.949C191.247 245.949 191.709 246.001 192.196 246.105C192.689 246.205 193.148 246.389 193.574 246.659C194.005 246.929 194.358 247.315 194.632 247.817C194.907 248.314 195.044 248.96 195.044 249.756V257H192.971V255.509H192.885C192.748 255.783 192.542 256.053 192.267 256.318C191.993 256.583 191.64 256.804 191.209 256.979C190.778 257.154 190.262 257.241 189.661 257.241ZM190.123 255.537C190.71 255.537 191.212 255.421 191.628 255.189C192.05 254.957 192.369 254.654 192.587 254.28C192.81 253.901 192.921 253.496 192.921 253.065V251.659C192.845 251.735 192.698 251.806 192.48 251.872C192.267 251.934 192.024 251.988 191.749 252.036C191.474 252.078 191.207 252.118 190.946 252.156C190.686 252.189 190.468 252.218 190.293 252.241C189.881 252.294 189.505 252.381 189.164 252.504C188.828 252.627 188.558 252.805 188.354 253.037C188.155 253.264 188.056 253.567 188.056 253.946C188.056 254.472 188.25 254.869 188.638 255.139C189.026 255.404 189.521 255.537 190.123 255.537ZM208.358 246.091V247.795H202.193V246.091H208.358ZM203.883 257V244.827C203.883 244.145 204.032 243.579 204.331 243.129C204.629 242.675 205.024 242.336 205.517 242.114C206.009 241.886 206.544 241.773 207.122 241.773C207.548 241.773 207.913 241.808 208.216 241.879C208.519 241.946 208.743 242.007 208.89 242.064L208.393 243.783C208.294 243.754 208.166 243.721 208.01 243.683C207.853 243.641 207.664 243.619 207.441 243.619C206.925 243.619 206.556 243.747 206.333 244.003C206.116 244.259 206.007 244.628 206.007 245.111V257H203.883ZM214.714 257.22C213.691 257.22 212.799 256.986 212.037 256.517C211.274 256.048 210.682 255.393 210.261 254.55C209.84 253.707 209.629 252.722 209.629 251.595C209.629 250.464 209.84 249.474 210.261 248.626C210.682 247.779 211.274 247.121 212.037 246.652C212.799 246.183 213.691 245.949 214.714 245.949C215.737 245.949 216.629 246.183 217.392 246.652C218.154 247.121 218.746 247.779 219.167 248.626C219.589 249.474 219.799 250.464 219.799 251.595C219.799 252.722 219.589 253.707 219.167 254.55C218.746 255.393 218.154 256.048 217.392 256.517C216.629 256.986 215.737 257.22 214.714 257.22ZM214.721 255.438C215.384 255.438 215.933 255.262 216.369 254.912C216.805 254.562 217.127 254.095 217.335 253.513C217.548 252.93 217.654 252.289 217.654 251.588C217.654 250.892 217.548 250.253 217.335 249.67C217.127 249.083 216.805 248.612 216.369 248.257C215.933 247.902 215.384 247.724 214.721 247.724C214.054 247.724 213.5 247.902 213.059 248.257C212.624 248.612 212.299 249.083 212.086 249.67C211.878 250.253 211.774 250.892 211.774 251.588C211.774 252.289 211.878 252.93 212.086 253.513C212.299 254.095 212.624 254.562 213.059 254.912C213.5 255.262 214.054 255.438 214.721 255.438ZM222.17 257V246.091H224.293V257H222.17ZM223.242 244.408C222.873 244.408 222.556 244.285 222.29 244.038C222.03 243.787 221.9 243.489 221.9 243.143C221.9 242.793 222.03 242.495 222.29 242.249C222.556 241.998 222.873 241.872 223.242 241.872C223.612 241.872 223.926 241.998 224.187 242.249C224.452 242.495 224.585 242.793 224.585 243.143C224.585 243.489 224.452 243.787 224.187 244.038C223.926 244.285 223.612 244.408 223.242 244.408ZM237.536 246.091V247.795H231.577V246.091H237.536ZM233.175 243.477H235.298V253.797C235.298 254.209 235.36 254.519 235.483 254.727C235.606 254.931 235.765 255.071 235.959 255.146C236.158 255.217 236.373 255.253 236.605 255.253C236.776 255.253 236.925 255.241 237.053 255.217C237.18 255.194 237.28 255.175 237.351 255.161L237.734 256.915C237.611 256.962 237.436 257.009 237.209 257.057C236.982 257.109 236.697 257.137 236.357 257.142C235.798 257.152 235.277 257.052 234.794 256.844C234.311 256.635 233.92 256.313 233.622 255.878C233.324 255.442 233.175 254.895 233.175 254.237V243.477ZM243.059 257.241C242.368 257.241 241.743 257.114 241.184 256.858C240.626 256.598 240.183 256.221 239.856 255.729C239.534 255.236 239.373 254.633 239.373 253.918C239.373 253.302 239.492 252.795 239.728 252.398C239.965 252 240.285 251.685 240.687 251.453C241.09 251.221 241.539 251.046 242.037 250.928C242.534 250.809 243.04 250.719 243.556 250.658C244.21 250.582 244.74 250.52 245.147 250.473C245.555 250.421 245.85 250.338 246.035 250.224C246.22 250.111 246.312 249.926 246.312 249.67V249.621C246.312 249 246.137 248.52 245.787 248.179C245.441 247.838 244.925 247.668 244.238 247.668C243.523 247.668 242.96 247.826 242.548 248.143C242.141 248.456 241.859 248.804 241.703 249.188L239.707 248.733C239.944 248.07 240.289 247.535 240.744 247.128C241.203 246.716 241.731 246.418 242.328 246.233C242.924 246.044 243.552 245.949 244.21 245.949C244.645 245.949 245.107 246.001 245.595 246.105C246.087 246.205 246.547 246.389 246.973 246.659C247.404 246.929 247.756 247.315 248.031 247.817C248.306 248.314 248.443 248.96 248.443 249.756V257H246.369V255.509H246.284C246.146 255.783 245.94 256.053 245.666 256.318C245.391 256.583 245.038 256.804 244.608 256.979C244.177 257.154 243.661 257.241 243.059 257.241ZM243.521 255.537C244.108 255.537 244.61 255.421 245.027 255.189C245.448 254.957 245.768 254.654 245.985 254.28C246.208 253.901 246.319 253.496 246.319 253.065V251.659C246.243 251.735 246.097 251.806 245.879 251.872C245.666 251.934 245.422 251.988 245.147 252.036C244.873 252.078 244.605 252.118 244.345 252.156C244.084 252.189 243.867 252.218 243.691 252.241C243.279 252.294 242.903 252.381 242.562 252.504C242.226 252.627 241.956 252.805 241.752 253.037C241.554 253.264 241.454 253.567 241.454 253.946C241.454 254.472 241.648 254.869 242.037 255.139C242.425 255.404 242.92 255.537 243.521 255.537ZM242.186 244.77L240.758 244.727C240.758 243.941 240.969 243.314 241.39 242.845C241.816 242.376 242.342 242.142 242.967 242.142C243.256 242.142 243.509 242.192 243.727 242.291C243.945 242.386 244.148 242.497 244.338 242.625C244.532 242.748 244.724 242.859 244.913 242.959C245.107 243.054 245.323 243.101 245.559 243.101C245.834 243.101 246.056 242.997 246.227 242.788C246.402 242.58 246.49 242.322 246.49 242.014L247.889 242.107C247.889 242.897 247.676 243.52 247.25 243.974C246.824 244.424 246.3 244.652 245.68 244.656C245.344 244.656 245.065 244.609 244.842 244.514C244.624 244.415 244.43 244.304 244.26 244.18C244.089 244.053 243.914 243.939 243.734 243.839C243.554 243.74 243.339 243.69 243.088 243.69C242.823 243.69 242.605 243.795 242.434 244.003C242.269 244.206 242.186 244.462 242.186 244.77ZM255.866 257.22C254.844 257.22 253.951 256.986 253.189 256.517C252.427 256.048 251.835 255.393 251.413 254.55C250.992 253.707 250.781 252.722 250.781 251.595C250.781 250.464 250.992 249.474 251.413 248.626C251.835 247.779 252.427 247.121 253.189 246.652C253.951 246.183 254.844 245.949 255.866 245.949C256.889 245.949 257.782 246.183 258.544 246.652C259.306 247.121 259.898 247.779 260.32 248.626C260.741 249.474 260.952 250.464 260.952 251.595C260.952 252.722 260.741 253.707 260.32 254.55C259.898 255.393 259.306 256.048 258.544 256.517C257.782 256.986 256.889 257.22 255.866 257.22ZM255.874 255.438C256.536 255.438 257.086 255.262 257.521 254.912C257.957 254.562 258.279 254.095 258.487 253.513C258.7 252.93 258.807 252.289 258.807 251.588C258.807 250.892 258.7 250.253 258.487 249.67C258.279 249.083 257.957 248.612 257.521 248.257C257.086 247.902 256.536 247.724 255.874 247.724C255.206 247.724 254.652 247.902 254.212 248.257C253.776 248.612 253.452 249.083 253.239 249.67C253.03 250.253 252.926 250.892 252.926 251.588C252.926 252.289 253.03 252.93 253.239 253.513C253.452 254.095 253.776 254.562 254.212 254.912C254.652 255.262 255.206 255.438 255.874 255.438ZM273.807 246.091V247.795H267.642V246.091H273.807ZM269.332 257V244.827C269.332 244.145 269.482 243.579 269.78 243.129C270.078 242.675 270.473 242.336 270.966 242.114C271.458 241.886 271.993 241.773 272.571 241.773C272.997 241.773 273.362 241.808 273.665 241.879C273.968 241.946 274.193 242.007 274.339 242.064L273.842 243.783C273.743 243.754 273.615 243.721 273.459 243.683C273.303 243.641 273.113 243.619 272.891 243.619C272.375 243.619 272.005 243.747 271.783 244.003C271.565 244.259 271.456 244.628 271.456 245.111V257H269.332ZM278.841 257.241C278.149 257.241 277.524 257.114 276.966 256.858C276.407 256.598 275.964 256.221 275.637 255.729C275.315 255.236 275.154 254.633 275.154 253.918C275.154 253.302 275.273 252.795 275.51 252.398C275.746 252 276.066 251.685 276.468 251.453C276.871 251.221 277.321 251.046 277.818 250.928C278.315 250.809 278.822 250.719 279.338 250.658C279.991 250.582 280.521 250.52 280.929 250.473C281.336 250.421 281.632 250.338 281.816 250.224C282.001 250.111 282.093 249.926 282.093 249.67V249.621C282.093 249 281.918 248.52 281.568 248.179C281.222 247.838 280.706 247.668 280.02 247.668C279.305 247.668 278.741 247.826 278.329 248.143C277.922 248.456 277.64 248.804 277.484 249.188L275.488 248.733C275.725 248.07 276.071 247.535 276.525 247.128C276.984 246.716 277.512 246.418 278.109 246.233C278.706 246.044 279.333 245.949 279.991 245.949C280.427 245.949 280.888 246.001 281.376 246.105C281.868 246.205 282.328 246.389 282.754 246.659C283.185 246.929 283.538 247.315 283.812 247.817C284.087 248.314 284.224 248.96 284.224 249.756V257H282.15V255.509H282.065C281.928 255.783 281.722 256.053 281.447 256.318C281.172 256.583 280.82 256.804 280.389 256.979C279.958 257.154 279.442 257.241 278.841 257.241ZM279.302 255.537C279.889 255.537 280.391 255.421 280.808 255.189C281.229 254.957 281.549 254.654 281.767 254.28C281.989 253.901 282.1 253.496 282.1 253.065V251.659C282.025 251.735 281.878 251.806 281.66 251.872C281.447 251.934 281.203 251.988 280.929 252.036C280.654 252.078 280.386 252.118 280.126 252.156C279.866 252.189 279.648 252.218 279.473 252.241C279.061 252.294 278.684 252.381 278.343 252.504C278.007 252.627 277.737 252.805 277.534 253.037C277.335 253.264 277.235 253.567 277.235 253.946C277.235 254.472 277.43 254.869 277.818 255.139C278.206 255.404 278.701 255.537 279.302 255.537ZM279.224 244.635L280.886 241.361H283.123L280.922 244.635H279.224ZM291.648 257.22C290.592 257.22 289.683 256.981 288.92 256.503C288.163 256.02 287.58 255.355 287.173 254.507C286.766 253.66 286.562 252.689 286.562 251.595C286.562 250.487 286.771 249.509 287.188 248.662C287.604 247.81 288.191 247.144 288.949 246.666C289.706 246.188 290.599 245.949 291.626 245.949C292.455 245.949 293.194 246.103 293.842 246.411C294.491 246.714 295.014 247.14 295.412 247.689C295.814 248.238 296.054 248.88 296.129 249.614H294.062C293.949 249.102 293.688 248.662 293.281 248.293C292.879 247.923 292.339 247.739 291.662 247.739C291.07 247.739 290.552 247.895 290.107 248.207C289.666 248.515 289.323 248.955 289.077 249.528C288.83 250.097 288.707 250.769 288.707 251.545C288.707 252.341 288.828 253.027 289.07 253.605C289.311 254.183 289.652 254.63 290.092 254.947C290.537 255.265 291.061 255.423 291.662 255.423C292.064 255.423 292.429 255.35 292.756 255.203C293.087 255.052 293.364 254.836 293.587 254.557C293.814 254.277 293.973 253.941 294.062 253.548H296.129C296.054 254.254 295.824 254.884 295.44 255.438C295.057 255.991 294.543 256.427 293.899 256.744C293.26 257.062 292.509 257.22 291.648 257.22ZM298.4 257V246.091H300.524V257H298.4ZM299.473 244.408C299.103 244.408 298.786 244.285 298.521 244.038C298.261 243.787 298.13 243.489 298.13 243.143C298.13 242.793 298.261 242.495 298.521 242.249C298.786 241.998 299.103 241.872 299.473 241.872C299.842 241.872 300.157 241.998 300.417 242.249C300.682 242.495 300.815 242.793 300.815 243.143C300.815 243.489 300.682 243.787 300.417 244.038C300.157 244.285 299.842 244.408 299.473 244.408ZM305.504 242.455V257H303.381V242.455H305.504Z" fill="#A1A1AA"/>
<rect x="43" y="296" width="129" height="48" rx="8" stroke="#F4F4F5" stroke-width="1.5"/>
<path d="M69.3736 314.364L72.6122 323.841H72.7429L75.9815 314.364H77.8793L73.6918 326H71.6634L67.4759 314.364H69.3736ZM82.3097 326.176C81.4498 326.176 80.7093 325.992 80.0881 325.625C79.4706 325.254 78.9934 324.733 78.6562 324.062C78.3229 323.388 78.1562 322.598 78.1562 321.693C78.1562 320.799 78.3229 320.011 78.6562 319.33C78.9934 318.648 79.4631 318.116 80.0653 317.733C80.6714 317.35 81.3797 317.159 82.1903 317.159C82.6828 317.159 83.16 317.241 83.6222 317.403C84.0843 317.566 84.4991 317.822 84.8665 318.17C85.2339 318.519 85.5237 318.972 85.7358 319.528C85.9479 320.081 86.054 320.754 86.054 321.545V322.148H79.1165V320.875H84.3892C84.3892 320.428 84.2983 320.032 84.1165 319.688C83.9347 319.339 83.679 319.064 83.3494 318.864C83.0237 318.663 82.6411 318.562 82.2017 318.562C81.7244 318.562 81.3078 318.68 80.9517 318.915C80.5994 319.146 80.3267 319.449 80.1335 319.824C79.9441 320.195 79.8494 320.598 79.8494 321.034V322.028C79.8494 322.612 79.9517 323.108 80.1562 323.517C80.3646 323.926 80.6544 324.239 81.0256 324.455C81.3968 324.667 81.8305 324.773 82.3267 324.773C82.6487 324.773 82.9422 324.727 83.2074 324.636C83.4725 324.542 83.7017 324.402 83.8949 324.216C84.0881 324.03 84.2358 323.801 84.3381 323.528L85.946 323.818C85.8172 324.292 85.5862 324.706 85.2528 325.062C84.9233 325.415 84.5085 325.689 84.0085 325.886C83.5123 326.08 82.946 326.176 82.3097 326.176ZM87.9389 326V317.273H89.581V318.659H89.6719C89.831 318.189 90.1113 317.82 90.5128 317.551C90.9181 317.278 91.3764 317.142 91.8878 317.142C91.9938 317.142 92.1188 317.146 92.2628 317.153C92.4105 317.161 92.526 317.17 92.6094 317.182V318.807C92.5412 318.788 92.42 318.767 92.2457 318.744C92.0715 318.718 91.8973 318.705 91.723 318.705C91.3215 318.705 90.9635 318.79 90.6491 318.96C90.3385 319.127 90.0923 319.36 89.9105 319.659C89.7287 319.955 89.6378 320.292 89.6378 320.67V326H87.9389ZM98.3139 329.273V317.273H99.973V318.688H100.115C100.214 318.506 100.356 318.295 100.541 318.057C100.727 317.818 100.984 317.61 101.314 317.432C101.643 317.25 102.079 317.159 102.621 317.159C103.325 317.159 103.954 317.337 104.507 317.693C105.06 318.049 105.494 318.562 105.808 319.233C106.126 319.903 106.286 320.71 106.286 321.653C106.286 322.597 106.128 323.405 105.814 324.08C105.5 324.75 105.068 325.267 104.518 325.631C103.969 325.991 103.342 326.17 102.638 326.17C102.107 326.17 101.674 326.081 101.337 325.903C101.003 325.725 100.742 325.517 100.553 325.278C100.363 325.04 100.217 324.828 100.115 324.642H100.013V329.273H98.3139ZM99.9787 321.636C99.9787 322.25 100.068 322.788 100.246 323.25C100.424 323.712 100.681 324.074 101.018 324.335C101.356 324.593 101.768 324.722 102.257 324.722C102.765 324.722 103.189 324.587 103.53 324.318C103.871 324.045 104.128 323.676 104.303 323.21C104.481 322.744 104.57 322.22 104.57 321.636C104.57 321.061 104.482 320.544 104.308 320.085C104.138 319.627 103.88 319.265 103.536 319C103.195 318.735 102.768 318.602 102.257 318.602C101.765 318.602 101.348 318.729 101.007 318.983C100.67 319.237 100.414 319.591 100.24 320.045C100.066 320.5 99.9787 321.03 99.9787 321.636ZM109.888 314.364V326H108.189V314.364H109.888ZM114.713 326.193C114.16 326.193 113.66 326.091 113.213 325.886C112.766 325.678 112.412 325.377 112.151 324.983C111.893 324.589 111.764 324.106 111.764 323.534C111.764 323.042 111.859 322.636 112.048 322.318C112.238 322 112.493 321.748 112.815 321.562C113.137 321.377 113.497 321.237 113.895 321.142C114.293 321.047 114.698 320.975 115.111 320.926C115.634 320.866 116.058 320.816 116.384 320.778C116.709 320.737 116.946 320.67 117.094 320.58C117.241 320.489 117.315 320.341 117.315 320.136V320.097C117.315 319.6 117.175 319.216 116.895 318.943C116.618 318.67 116.205 318.534 115.656 318.534C115.084 318.534 114.634 318.661 114.304 318.915C113.978 319.165 113.753 319.443 113.628 319.75L112.031 319.386C112.221 318.856 112.497 318.428 112.861 318.102C113.228 317.773 113.651 317.534 114.128 317.386C114.605 317.235 115.107 317.159 115.634 317.159C115.982 317.159 116.351 317.201 116.741 317.284C117.135 317.364 117.503 317.511 117.844 317.727C118.188 317.943 118.471 318.252 118.69 318.653C118.91 319.051 119.02 319.568 119.02 320.205V326H117.361V324.807H117.293C117.183 325.027 117.018 325.242 116.798 325.455C116.579 325.667 116.296 325.843 115.952 325.983C115.607 326.123 115.194 326.193 114.713 326.193ZM115.082 324.83C115.552 324.83 115.954 324.737 116.287 324.551C116.624 324.366 116.88 324.123 117.054 323.824C117.232 323.521 117.321 323.197 117.321 322.852V321.727C117.26 321.788 117.143 321.845 116.969 321.898C116.798 321.947 116.603 321.991 116.384 322.028C116.164 322.062 115.95 322.095 115.741 322.125C115.533 322.152 115.359 322.174 115.219 322.193C114.889 322.235 114.588 322.305 114.315 322.403C114.046 322.502 113.83 322.644 113.668 322.83C113.509 323.011 113.429 323.254 113.429 323.557C113.429 323.977 113.584 324.295 113.895 324.511C114.205 324.723 114.601 324.83 115.082 324.83ZM122.982 320.818V326H121.283V317.273H122.913V318.693H123.021C123.222 318.231 123.536 317.86 123.964 317.58C124.396 317.299 124.94 317.159 125.595 317.159C126.19 317.159 126.711 317.284 127.158 317.534C127.605 317.78 127.951 318.148 128.197 318.636C128.444 319.125 128.567 319.729 128.567 320.449V326H126.868V320.653C126.868 320.021 126.703 319.527 126.374 319.17C126.044 318.811 125.591 318.631 125.016 318.631C124.622 318.631 124.271 318.716 123.964 318.886C123.661 319.057 123.421 319.307 123.243 319.636C123.069 319.962 122.982 320.356 122.982 320.818ZM134.521 326.176C133.703 326.176 132.989 325.989 132.379 325.614C131.769 325.239 131.296 324.714 130.959 324.04C130.622 323.366 130.453 322.578 130.453 321.676C130.453 320.771 130.622 319.979 130.959 319.301C131.296 318.623 131.769 318.097 132.379 317.722C132.989 317.347 133.703 317.159 134.521 317.159C135.339 317.159 136.054 317.347 136.663 317.722C137.273 318.097 137.747 318.623 138.084 319.301C138.421 319.979 138.589 320.771 138.589 321.676C138.589 322.578 138.421 323.366 138.084 324.04C137.747 324.714 137.273 325.239 136.663 325.614C136.054 325.989 135.339 326.176 134.521 326.176ZM134.527 324.75C135.057 324.75 135.497 324.61 135.845 324.33C136.194 324.049 136.451 323.676 136.618 323.21C136.788 322.744 136.874 322.231 136.874 321.67C136.874 321.114 136.788 320.602 136.618 320.136C136.451 319.667 136.194 319.29 135.845 319.006C135.497 318.722 135.057 318.58 134.527 318.58C133.993 318.58 133.55 318.722 133.197 319.006C132.849 319.29 132.589 319.667 132.419 320.136C132.252 320.602 132.169 321.114 132.169 321.67C132.169 322.231 132.252 322.744 132.419 323.21C132.589 323.676 132.849 324.049 133.197 324.33C133.55 324.61 133.993 324.75 134.527 324.75ZM147.026 319.403L145.486 319.676C145.421 319.479 145.319 319.292 145.179 319.114C145.043 318.936 144.857 318.79 144.622 318.676C144.387 318.562 144.094 318.506 143.741 318.506C143.26 318.506 142.859 318.614 142.537 318.83C142.215 319.042 142.054 319.316 142.054 319.653C142.054 319.945 142.162 320.18 142.378 320.358C142.594 320.536 142.942 320.682 143.423 320.795L144.81 321.114C145.613 321.299 146.211 321.585 146.605 321.972C146.999 322.358 147.196 322.86 147.196 323.477C147.196 324 147.045 324.466 146.741 324.875C146.442 325.28 146.024 325.598 145.486 325.83C144.952 326.061 144.332 326.176 143.628 326.176C142.651 326.176 141.853 325.968 141.236 325.551C140.618 325.131 140.24 324.534 140.099 323.761L141.741 323.511C141.844 323.939 142.054 324.263 142.372 324.483C142.69 324.699 143.105 324.807 143.616 324.807C144.173 324.807 144.618 324.691 144.952 324.46C145.285 324.225 145.452 323.939 145.452 323.602C145.452 323.33 145.349 323.1 145.145 322.915C144.944 322.729 144.635 322.589 144.219 322.494L142.741 322.17C141.927 321.985 141.325 321.689 140.935 321.284C140.548 320.879 140.355 320.366 140.355 319.744C140.355 319.229 140.499 318.778 140.787 318.392C141.075 318.006 141.473 317.705 141.98 317.489C142.488 317.269 143.069 317.159 143.724 317.159C144.668 317.159 145.41 317.364 145.952 317.773C146.493 318.178 146.851 318.722 147.026 319.403Z" fill="#F4F4F5"/>
<rect x="188" y="296" width="144" height="48" rx="8" fill="#F4F4F5"/>
<path d="M213.458 326V314.364H217.719C218.545 314.364 219.229 314.5 219.771 314.773C220.312 315.042 220.718 315.407 220.987 315.869C221.255 316.328 221.39 316.845 221.39 317.42C221.39 317.905 221.301 318.314 221.123 318.648C220.945 318.977 220.706 319.242 220.407 319.443C220.112 319.64 219.786 319.784 219.43 319.875V319.989C219.816 320.008 220.193 320.133 220.56 320.364C220.932 320.591 221.238 320.915 221.481 321.335C221.723 321.756 221.844 322.267 221.844 322.869C221.844 323.464 221.704 323.998 221.424 324.472C221.147 324.941 220.719 325.314 220.14 325.591C219.56 325.864 218.82 326 217.918 326H213.458ZM215.214 324.494H217.748C218.589 324.494 219.191 324.331 219.555 324.006C219.918 323.68 220.1 323.273 220.1 322.784C220.1 322.417 220.007 322.08 219.822 321.773C219.636 321.466 219.371 321.222 219.026 321.04C218.685 320.858 218.28 320.767 217.81 320.767H215.214V324.494ZM215.214 319.398H217.566C217.96 319.398 218.314 319.322 218.629 319.17C218.947 319.019 219.199 318.807 219.384 318.534C219.574 318.258 219.668 317.932 219.668 317.557C219.668 317.076 219.5 316.672 219.163 316.347C218.826 316.021 218.308 315.858 217.612 315.858H215.214V319.398ZM226.33 326.193C225.777 326.193 225.277 326.091 224.83 325.886C224.383 325.678 224.029 325.377 223.768 324.983C223.51 324.589 223.381 324.106 223.381 323.534C223.381 323.042 223.476 322.636 223.665 322.318C223.855 322 224.111 321.748 224.433 321.562C224.754 321.377 225.114 321.237 225.512 321.142C225.91 321.047 226.315 320.975 226.728 320.926C227.251 320.866 227.675 320.816 228.001 320.778C228.326 320.737 228.563 320.67 228.711 320.58C228.859 320.489 228.933 320.341 228.933 320.136V320.097C228.933 319.6 228.792 319.216 228.512 318.943C228.236 318.67 227.823 318.534 227.273 318.534C226.701 318.534 226.251 318.661 225.921 318.915C225.595 319.165 225.37 319.443 225.245 319.75L223.648 319.386C223.838 318.856 224.114 318.428 224.478 318.102C224.845 317.773 225.268 317.534 225.745 317.386C226.222 317.235 226.724 317.159 227.251 317.159C227.599 317.159 227.969 317.201 228.359 317.284C228.753 317.364 229.12 317.511 229.461 317.727C229.806 317.943 230.088 318.252 230.308 318.653C230.527 319.051 230.637 319.568 230.637 320.205V326H228.978V324.807H228.91C228.8 325.027 228.635 325.242 228.415 325.455C228.196 325.667 227.914 325.843 227.569 325.983C227.224 326.123 226.811 326.193 226.33 326.193ZM226.7 324.83C227.169 324.83 227.571 324.737 227.904 324.551C228.241 324.366 228.497 324.123 228.671 323.824C228.849 323.521 228.938 323.197 228.938 322.852V321.727C228.878 321.788 228.76 321.845 228.586 321.898C228.415 321.947 228.22 321.991 228.001 322.028C227.781 322.062 227.567 322.095 227.359 322.125C227.15 322.152 226.976 322.174 226.836 322.193C226.506 322.235 226.205 322.305 225.933 322.403C225.664 322.502 225.448 322.644 225.285 322.83C225.126 323.011 225.046 323.254 225.046 323.557C225.046 323.977 225.201 324.295 225.512 324.511C225.823 324.723 226.219 324.83 226.7 324.83ZM232.9 326V317.273H234.599V326H232.9ZM233.758 315.926C233.462 315.926 233.209 315.828 232.996 315.631C232.788 315.43 232.684 315.191 232.684 314.915C232.684 314.634 232.788 314.396 232.996 314.199C233.209 313.998 233.462 313.898 233.758 313.898C234.053 313.898 234.305 313.998 234.513 314.199C234.726 314.396 234.832 314.634 234.832 314.915C234.832 315.191 234.726 315.43 234.513 315.631C234.305 315.828 234.053 315.926 233.758 315.926ZM238.225 317.273L240.151 320.67L242.094 317.273H243.952L241.231 321.636L243.975 326H242.117L240.151 322.739L238.191 326H236.327L239.043 321.636L236.362 317.273H238.225ZM248.221 326.193C247.668 326.193 247.168 326.091 246.721 325.886C246.274 325.678 245.92 325.377 245.658 324.983C245.401 324.589 245.272 324.106 245.272 323.534C245.272 323.042 245.367 322.636 245.556 322.318C245.746 322 246.001 321.748 246.323 321.562C246.645 321.377 247.005 321.237 247.403 321.142C247.8 321.047 248.206 320.975 248.619 320.926C249.141 320.866 249.566 320.816 249.891 320.778C250.217 320.737 250.454 320.67 250.602 320.58C250.749 320.489 250.823 320.341 250.823 320.136V320.097C250.823 319.6 250.683 319.216 250.403 318.943C250.126 318.67 249.713 318.534 249.164 318.534C248.592 318.534 248.141 318.661 247.812 318.915C247.486 319.165 247.261 319.443 247.136 319.75L245.539 319.386C245.728 318.856 246.005 318.428 246.369 318.102C246.736 317.773 247.158 317.534 247.636 317.386C248.113 317.235 248.615 317.159 249.141 317.159C249.49 317.159 249.859 317.201 250.249 317.284C250.643 317.364 251.011 317.511 251.352 317.727C251.696 317.943 251.978 318.252 252.198 318.653C252.418 319.051 252.528 319.568 252.528 320.205V326H250.869V324.807H250.8C250.691 325.027 250.526 325.242 250.306 325.455C250.086 325.667 249.804 325.843 249.46 325.983C249.115 326.123 248.702 326.193 248.221 326.193ZM248.59 324.83C249.06 324.83 249.461 324.737 249.795 324.551C250.132 324.366 250.388 324.123 250.562 323.824C250.74 323.521 250.829 323.197 250.829 322.852V321.727C250.768 321.788 250.651 321.845 250.477 321.898C250.306 321.947 250.111 321.991 249.891 322.028C249.672 322.062 249.458 322.095 249.249 322.125C249.041 322.152 248.867 322.174 248.727 322.193C248.397 322.235 248.096 322.305 247.823 322.403C247.554 322.502 247.338 322.644 247.175 322.83C247.016 323.011 246.937 323.254 246.937 323.557C246.937 323.977 247.092 324.295 247.403 324.511C247.713 324.723 248.109 324.83 248.59 324.83ZM254.79 326V317.273H256.433V318.659H256.523C256.683 318.189 256.963 317.82 257.364 317.551C257.77 317.278 258.228 317.142 258.739 317.142C258.845 317.142 258.97 317.146 259.114 317.153C259.262 317.161 259.378 317.17 259.461 317.182V318.807C259.393 318.788 259.272 318.767 259.097 318.744C258.923 318.718 258.749 318.705 258.575 318.705C258.173 318.705 257.815 318.79 257.501 318.96C257.19 319.127 256.944 319.36 256.762 319.659C256.58 319.955 256.489 320.292 256.489 320.67V326H254.79ZM267.705 326.193C267.152 326.193 266.652 326.091 266.205 325.886C265.758 325.678 265.404 325.377 265.143 324.983C264.885 324.589 264.756 324.106 264.756 323.534C264.756 323.042 264.851 322.636 265.04 322.318C265.23 322 265.486 321.748 265.808 321.562C266.129 321.377 266.489 321.237 266.887 321.142C267.285 321.047 267.69 320.975 268.103 320.926C268.626 320.866 269.05 320.816 269.376 320.778C269.701 320.737 269.938 320.67 270.086 320.58C270.234 320.489 270.308 320.341 270.308 320.136V320.097C270.308 319.6 270.167 319.216 269.887 318.943C269.611 318.67 269.198 318.534 268.648 318.534C268.076 318.534 267.626 318.661 267.296 318.915C266.97 319.165 266.745 319.443 266.62 319.75L265.023 319.386C265.213 318.856 265.489 318.428 265.853 318.102C266.22 317.773 266.643 317.534 267.12 317.386C267.597 317.235 268.099 317.159 268.626 317.159C268.974 317.159 269.344 317.201 269.734 317.284C270.128 317.364 270.495 317.511 270.836 317.727C271.181 317.943 271.463 318.252 271.683 318.653C271.902 319.051 272.012 319.568 272.012 320.205V326H270.353V324.807H270.285C270.175 325.027 270.01 325.242 269.79 325.455C269.571 325.667 269.289 325.843 268.944 325.983C268.599 326.123 268.186 326.193 267.705 326.193ZM268.075 324.83C268.544 324.83 268.946 324.737 269.279 324.551C269.616 324.366 269.872 324.123 270.046 323.824C270.224 323.521 270.313 323.197 270.313 322.852V321.727C270.253 321.788 270.135 321.845 269.961 321.898C269.79 321.947 269.595 321.991 269.376 322.028C269.156 322.062 268.942 322.095 268.734 322.125C268.525 322.152 268.351 322.174 268.211 322.193C267.881 322.235 267.58 322.305 267.308 322.403C267.039 322.502 266.823 322.644 266.66 322.83C266.501 323.011 266.421 323.254 266.421 323.557C266.421 323.977 266.576 324.295 266.887 324.511C267.198 324.723 267.594 324.83 268.075 324.83ZM277.934 329.455C277.241 329.455 276.644 329.364 276.144 329.182C275.648 329 275.243 328.759 274.928 328.46C274.614 328.161 274.379 327.833 274.224 327.477L275.684 326.875C275.786 327.042 275.923 327.218 276.093 327.403C276.267 327.593 276.502 327.754 276.798 327.886C277.097 328.019 277.481 328.085 277.951 328.085C278.595 328.085 279.127 327.928 279.548 327.614C279.968 327.303 280.178 326.807 280.178 326.125V324.409H280.07C279.968 324.595 279.82 324.801 279.627 325.028C279.438 325.256 279.176 325.453 278.843 325.619C278.51 325.786 278.076 325.869 277.542 325.869C276.853 325.869 276.231 325.708 275.678 325.386C275.129 325.061 274.693 324.581 274.371 323.949C274.053 323.312 273.894 322.53 273.894 321.602C273.894 320.674 274.051 319.879 274.366 319.216C274.684 318.553 275.12 318.045 275.673 317.693C276.226 317.337 276.853 317.159 277.553 317.159C278.095 317.159 278.532 317.25 278.866 317.432C279.199 317.61 279.459 317.818 279.644 318.057C279.834 318.295 279.979 318.506 280.082 318.688H280.207V317.273H281.871V326.193C281.871 326.943 281.697 327.559 281.349 328.04C281 328.521 280.529 328.877 279.934 329.108C279.343 329.339 278.676 329.455 277.934 329.455ZM277.917 324.46C278.406 324.46 278.818 324.347 279.156 324.119C279.496 323.888 279.754 323.559 279.928 323.131C280.106 322.699 280.195 322.182 280.195 321.58C280.195 320.992 280.108 320.475 279.934 320.028C279.76 319.581 279.504 319.233 279.167 318.983C278.83 318.729 278.413 318.602 277.917 318.602C277.406 318.602 276.979 318.735 276.638 319C276.298 319.261 276.04 319.617 275.866 320.068C275.695 320.519 275.61 321.023 275.61 321.58C275.61 322.152 275.697 322.653 275.871 323.085C276.046 323.517 276.303 323.854 276.644 324.097C276.989 324.339 277.413 324.46 277.917 324.46ZM287.826 326.176C287.008 326.176 286.294 325.989 285.684 325.614C285.074 325.239 284.601 324.714 284.263 324.04C283.926 323.366 283.758 322.578 283.758 321.676C283.758 320.771 283.926 319.979 284.263 319.301C284.601 318.623 285.074 318.097 285.684 317.722C286.294 317.347 287.008 317.159 287.826 317.159C288.644 317.159 289.358 317.347 289.968 317.722C290.578 318.097 291.051 318.623 291.388 319.301C291.726 319.979 291.894 320.771 291.894 321.676C291.894 322.578 291.726 323.366 291.388 324.04C291.051 324.714 290.578 325.239 289.968 325.614C289.358 325.989 288.644 326.176 287.826 326.176ZM287.832 324.75C288.362 324.75 288.801 324.61 289.15 324.33C289.498 324.049 289.756 323.676 289.923 323.21C290.093 322.744 290.178 322.231 290.178 321.67C290.178 321.114 290.093 320.602 289.923 320.136C289.756 319.667 289.498 319.29 289.15 319.006C288.801 318.722 288.362 318.58 287.832 318.58C287.298 318.58 286.854 318.722 286.502 319.006C286.154 319.29 285.894 319.667 285.724 320.136C285.557 320.602 285.474 321.114 285.474 321.67C285.474 322.231 285.557 322.744 285.724 323.21C285.894 323.676 286.154 324.049 286.502 324.33C286.854 324.61 287.298 324.75 287.832 324.75ZM293.79 326V317.273H295.433V318.659H295.523C295.683 318.189 295.963 317.82 296.364 317.551C296.77 317.278 297.228 317.142 297.739 317.142C297.845 317.142 297.97 317.146 298.114 317.153C298.262 317.161 298.378 317.17 298.461 317.182V318.807C298.393 318.788 298.272 318.767 298.097 318.744C297.923 318.718 297.749 318.705 297.575 318.705C297.173 318.705 296.815 318.79 296.501 318.96C296.19 319.127 295.944 319.36 295.762 319.659C295.58 319.955 295.489 320.292 295.489 320.67V326H293.79ZM302.393 326.193C301.84 326.193 301.34 326.091 300.893 325.886C300.446 325.678 300.092 325.377 299.83 324.983C299.573 324.589 299.444 324.106 299.444 323.534C299.444 323.042 299.539 322.636 299.728 322.318C299.917 322 300.173 321.748 300.495 321.562C300.817 321.377 301.177 321.237 301.575 321.142C301.972 321.047 302.378 320.975 302.79 320.926C303.313 320.866 303.737 320.816 304.063 320.778C304.389 320.737 304.626 320.67 304.773 320.58C304.921 320.489 304.995 320.341 304.995 320.136V320.097C304.995 319.6 304.855 319.216 304.575 318.943C304.298 318.67 303.885 318.534 303.336 318.534C302.764 318.534 302.313 318.661 301.984 318.915C301.658 319.165 301.433 319.443 301.308 319.75L299.711 319.386C299.9 318.856 300.177 318.428 300.54 318.102C300.908 317.773 301.33 317.534 301.808 317.386C302.285 317.235 302.787 317.159 303.313 317.159C303.662 317.159 304.031 317.201 304.421 317.284C304.815 317.364 305.183 317.511 305.523 317.727C305.868 317.943 306.15 318.252 306.37 318.653C306.59 319.051 306.7 319.568 306.7 320.205V326H305.04V324.807H304.972C304.862 325.027 304.698 325.242 304.478 325.455C304.258 325.667 303.976 325.843 303.631 325.983C303.287 326.123 302.874 326.193 302.393 326.193ZM302.762 324.83C303.232 324.83 303.633 324.737 303.967 324.551C304.304 324.366 304.559 324.123 304.734 323.824C304.912 323.521 305.001 323.197 305.001 322.852V321.727C304.94 321.788 304.823 321.845 304.648 321.898C304.478 321.947 304.283 321.991 304.063 322.028C303.844 322.062 303.629 322.095 303.421 322.125C303.213 322.152 303.039 322.174 302.898 322.193C302.569 322.235 302.268 322.305 301.995 322.403C301.726 322.502 301.51 322.644 301.347 322.83C301.188 323.011 301.109 323.254 301.109 323.557C301.109 323.977 301.264 324.295 301.575 324.511C301.885 324.723 302.281 324.83 302.762 324.83Z" fill="#09090B"/>
</g>
<defs>
<filter id="filter0_f_2160_1234" x="-772.5" y="320" width="1478.88" height="1478.88" filterUnits="userSpaceOnUse" color-interpolation-filters="sRGB">
<feFlood flood-opacity="0" result="BackgroundImageFix"/>
<feBlend mode="normal" in="SourceGraphic" in2="BackgroundImageFix" result="shape"/>
<feGaussianBlur stdDeviation="120" result="effect1_foregroundBlur_2160_1234"/>
</filter>
<filter id="filter1_f_2160_1234" x="-331.38" y="331.488" width="1478.88" height="1478.88" filterUnits="userSpaceOnUse" color-interpolation-filters="sRGB">
<feFlood flood-opacity="0" result="BackgroundImageFix"/>
<feBlend mode="normal" in="SourceGraphic" in2="BackgroundImageFix" result="shape"/>
<feGaussianBlur stdDeviation="120" result="effect1_foregroundBlur_2160_1234"/>
</filter>
<linearGradient id="paint0_linear_2160_1234" x1="84.5" y1="90" x2="290.5" y2="90" gradientUnits="userSpaceOnUse">
<stop stop-color="#FC4A1A"/>
<stop offset="1" stop-color="#F7B733"/>
</linearGradient>
<clipPath id="clip0_2160_1234">
<rect width="375" height="748" fill="white"/>
</clipPath>
</defs>
</svg>
